<svg xmlns="http://www.w3.org/2000/svg" viewBox="0 0 100 100"><switch><g><path d="M88.5,15h-77C7.916,15,5,17.916,5,21.5v55c0,3.584,2.916,6.5,6.5,6.5h77c3.584,0,6.5-2.916,6.5-6.5v-55 C95,17.916,92.084,15,88.5,15z" opacity=".35"/><path fill="#f2f2f2" d="M86.5,13h-77C5.916,13,3,15.916,3,19.5v55C3,78.084,5.916,81,9.5,81h77 c3.584,0,6.5-2.916,6.5-6.5v-55C93,15.916,90.084,13,86.5,13z"/><path fill="#739f4d" d="M10,20h76v54H10V20z"/><path fill="#f9b84f" d="M79,47L48,67L17,47l31-20L79,47z"/><path fill="#2785bd" d="M48,34c-7.18,0-13,5.82-13,13s5.82,13,13,13s13-5.82,13-13S55.18,34,48,34z"/><path fill="#f2f2f2" d="M36.495,40.961c-0.63,1.196-1.07,2.502-1.3,3.88c4.186-0.52,15.565-1.044,25.135,6.262 C60.759,49.812,61,48.434,61,47c0,0,0-0.007,0-0.011C51.822,40.771,41.793,40.519,36.495,40.961z"/><path fill="#40396e" d="M86.5,76h-77C8.671,76,8,75.328,8,74.5v-55C8,18.672,8.671,18,9.5,18h77 c0.828,0,1.5,0.672,1.5,1.5v55C88,75.328,87.328,76,86.5,76z M11,73h74V21H11V73z"/><polygon fill="#f2f2f2" points="38.5,49 38.655,49.329 39,49.382 38.75,49.638 38.809,50 38.5,49.829 38.191,50 38.25,49.638 38,49.382 38.345,49.329"/><polygon fill="#f2f2f2" points="41.5,50 41.655,50.329 42,50.382 41.75,50.638 41.809,51 41.5,50.829 41.191,51 41.25,50.638 41,50.382 41.345,50.329"/><polygon fill="#f2f2f2" points="40.5,52 40.655,52.329 41,52.382 40.75,52.638 40.809,53 40.5,52.829 40.191,53 40.25,52.638 40,52.382 40.345,52.329"/><polygon fill="#f2f2f2" points="43.5,53 43.655,53.329 44,53.382 43.75,53.638 43.809,54 43.5,53.829 43.191,54 43.25,53.638 43,53.382 43.345,53.329"/><polygon fill="#f2f2f2" points="48.5,52 48.655,52.329 49,52.382 48.75,52.638 48.809,53 48.5,52.829 48.191,53 48.25,52.638 48,52.382 48.345,52.329"/><polygon fill="#f2f2f2" points="49.5,49 49.655,49.329 50,49.382 49.75,49.638 49.809,50 49.5,49.829 49.191,50 49.25,49.638 49,49.382 49.345,49.329"/><polygon fill="#f2f2f2" points="46.5,49 46.655,49.329 47,49.382 46.75,49.638 46.809,50 46.5,49.829 46.191,50 46.25,49.638 46,49.382 46.345,49.329"/><polygon fill="#f2f2f2" points="56.5,51 56.655,51.329 57,51.382 56.75,51.638 56.809,52 56.5,51.829 56.191,52 56.25,51.638 56,51.382 56.345,51.329"/><polygon fill="#f2f2f2" points="43.5,47 43.655,47.329 44,47.382 43.75,47.638 43.809,48 43.5,47.829 43.191,48 43.25,47.638 43,47.382 43.345,47.329"/><polygon fill="#f2f2f2" points="37.5,46 37.655,46.329 38,46.382 37.75,46.638 37.809,47 37.5,46.829 37.191,47 37.25,46.638 37,46.382 37.345,46.329"/><polygon fill="#f2f2f2" points="51.5,55 51.655,55.329 52,55.382 51.75,55.638 51.809,56 51.5,55.829 51.191,56 51.25,55.638 51,55.382 51.345,55.329"/><polygon fill="#f2f2f2" points="47.5,56 47.655,56.329 48,56.382 47.75,56.638 47.809,57 47.5,56.829 47.191,57 47.25,56.638 47,56.382 47.345,56.329"/><polygon fill="#f2f2f2" points="55.5,53 55.655,53.329 56,53.382 55.75,53.638 55.809,54 55.5,53.829 55.191,54 55.25,53.638 55,53.382 55.345,53.329"/><polygon fill="#f2f2f2" points="58.5,51 58.655,51.329 59,51.382 58.75,51.638 58.809,52 58.5,51.829 58.191,52 58.25,51.638 58,51.382 58.345,51.329"/><g><polygon fill="#f2f2f2" points="54.5,55 54.655,55.329 55,55.382 54.75,55.638 54.809,56 54.5,55.829 54.191,56 54.25,55.638 54,55.382 54.345,55.329"/></g><g><polygon fill="#f2f2f2" points="50.5,53 50.655,53.329 51,53.382 50.75,53.638 50.809,54 50.5,53.829 50.191,54 50.25,53.638 50,53.382 50.345,53.329"/></g></g></switch></svg>