<svg xmlns="http://www.w3.org/2000/svg" viewBox="0 0 100 100"><switch><g><path d="M88.5,16h-77C7.916,16,5,18.916,5,22.5v55c0,3.584,2.916,6.5,6.5,6.5h77c3.584,0,6.5-2.916,6.5-6.5v-55 C95,18.916,92.084,16,88.5,16z" opacity=".35"/><path fill="#f2f2f2" d="M86.5,14h-77C5.916,14,3,16.916,3,20.5v55C3,79.084,5.916,82,9.5,82h77 c3.584,0,6.5-2.916,6.5-6.5v-55C93,16.916,90.084,14,86.5,14z"/><path fill="#f2f2f2" d="M10,21h76v54H10V21z"/><rect width="18" height="54" x="68" y="21" fill="#f4665c"/><rect width="18" height="54" x="10" y="21" fill="#f4665c"/><path fill="#40396e" d="M86.5,77h-77C8.672,77,8,76.328,8,75.5v-55C8,19.672,8.672,19,9.5,19h77 c0.828,0,1.5,0.672,1.5,1.5v55C88,76.328,87.328,77,86.5,77z M11,74h74V22H11V74z"/><path fill="#f4665c" d="M62.114,48.601L64,42l-4.421,2.653c-0.288,0.173-0.661,0.018-0.742-0.307L58,41l-4.724,4.724 c-0.359,0.359-0.962,0.017-0.839-0.475L55,35l-3.491,2.618c-0.259,0.194-0.632,0.095-0.76-0.203L48,31l-2.749,6.415 c-0.128,0.298-0.5,0.397-0.76,0.203L41,35l2.562,10.249c0.123,0.492-0.48,0.833-0.839,0.475L38,41l-0.836,3.345 c-0.081,0.326-0.454,0.48-0.742,0.307L32,42l1.886,6.601c0.066,0.231-0.042,0.477-0.257,0.585L32,50l8.493,5.662 c0.263,0.175,0.299,0.546,0.076,0.77L38,59l10-3l10,3l-2.569-2.569c-0.223-0.223-0.186-0.595,0.076-0.77L64,50l-1.629-0.814 C62.156,49.078,62.048,48.832,62.114,48.601z"/><polygon fill="#f4665c" points="48,48 47,66 49,66"/><path fill="#f4665c" d="M47,66v-8.377c0-0.32-0.296-0.557-0.608-0.488L38,59l10-3v3v2L47,66z"/><path fill="#f4665c" d="M49,66v-8.377c0-0.32,0.296-0.557,0.608-0.488L58,59l-10-3v3v2L49,66z"/></g></switch></svg>