<svg xmlns="http://www.w3.org/2000/svg" viewBox="0 0 100 100"><switch><g><path d="M90.5,15h-77C9.916,15,7,17.916,7,21.5v55c0,3.584,2.916,6.5,6.5,6.5h77c3.584,0,6.5-2.916,6.5-6.5v-55 C97,17.916,94.084,15,90.5,15z" opacity=".35"/><path fill="#f2f2f2" d="M88.5,13h-77C7.916,13,5,15.916,5,19.5v55c0,3.584,2.916,6.5,6.5,6.5h77 c3.584,0,6.5-2.916,6.5-6.5v-55C95,15.916,92.084,13,88.5,13z"/><path fill="#f2f2f2" d="M37,20h26v55H37V20z"/><path fill="#f4665c" d="M63,20h26v55H63V20z"/><path fill="#2785bd" d="M11,21h26v55H11V21z"/><path fill="#40396e" d="M88.5,76h-77c-0.829,0-1.5-0.671-1.5-1.5v-55c0-0.829,0.671-1.5,1.5-1.5h77 c0.829,0,1.5,0.671,1.5,1.5v55C90,75.329,89.329,76,88.5,76z M13,73h74V21H13V73z"/></g></switch></svg>