<svg xmlns="http://www.w3.org/2000/svg" viewBox="0 0 100 100"><path d="M13.5,86C9.916,86,7,83.084,7,79.5v-55c0-3.584,2.916-6.5,6.5-6.5h77c3.584,0,6.5,2.916,6.5,6.5v55 c0,3.584-2.916,6.5-6.5,6.5H13.5z" opacity=".35"/><path fill="#f2f2f2" d="M11.5,84C7.916,84,5,81.084,5,77.5v-55c0-3.584,2.916-6.5,6.5-6.5h77c3.584,0,6.5,2.916,6.5,6.5v55 c0,3.584-2.916,6.5-6.5,6.5H11.5z"/><path fill="#70bfff" d="M11.696,23.517h76.608v53.335H11.696V23.517z"/><path fill="#fff" d="M11.211,30.392l36.184,24.14l5.149-8.937l-33.75-22.563h-7.583V30.392z"/><path fill="#fff" d="M88.789,23.033H82.85L49.101,45.593l5.147,8.939l34.541-23.076V23.033z"/><path fill="#fff" d="M54.248,44.452l-5.147,8.937L84.99,77.337h3.799v-9.812L54.248,44.452z"/><path fill="#fff" d="M11.211,68.594v8.743h5.818l35.515-23.946l-5.147-8.939L11.211,68.594z"/><path fill="#ff7575" d="M88.789,23.033h-1.939L55.818,44.366H60.6l28.189-19.394V23.033z M44.182,56.003H39.4 L11.211,75.398v1.939h1.939L44.182,56.003z"/><path fill="#ff7575" d="M11.211,24.972v3.201l24.213,16.193h4.879L11.211,24.972z"/><path fill="#fff" d="M12.181,44h75.638v12H12.181V44z"/><path fill="#fff" d="M44,24.002h12v52.365H44V24.002z"/><path fill="#ff7575" d="M47,77V53H12v-6h35V23h6v24h35v6H53v24H47z"/><path fill="#ff7575" d="M88.789,70.09L68.602,56.003h-5.026l25.213,17.455V70.09z"/><rect width="77" height="55" x="11.5" y="22.5" fill="none" stroke="#40396e" stroke-linejoin="round" stroke-miterlimit="10" stroke-width="3"/></svg>