<svg xmlns="http://www.w3.org/2000/svg" viewBox="0 0 100 100"><switch><g><path d="M88.5,15h-77C7.916,15,5,17.916,5,21.5v55c0,3.584,2.916,6.5,6.5,6.5h77c3.584,0,6.5-2.916,6.5-6.5v-55 C95,17.916,92.084,15,88.5,15z" opacity=".35"/><path fill="#f2f2f2" d="M86.5,13h-77C5.916,13,3,15.916,3,19.5v55C3,78.084,5.916,81,9.5,81h77 c3.584,0,6.5-2.916,6.5-6.5v-55C93,15.916,90.084,13,86.5,13z"/><path fill="#f2f2f2" d="M35,19h26v55H35V19z"/><path fill="#ef8630" d="M61,19h26v55H61V19z"/><path fill="#739f4d" d="M9,20h26v55H9V20z"/><path fill="#40396e" d="M86.5,76h-77C8.671,76,8,75.328,8,74.5v-55C8,18.672,8.671,18,9.5,18h77 c0.829,0,1.5,0.672,1.5,1.5v55C88,75.328,87.329,76,86.5,76z M11,73h74V21H11V73z"/></g></switch></svg>