<svg xmlns="http://www.w3.org/2000/svg" viewBox="0 0 100 100"><switch><g><path d="M88.5,16h-77C7.916,16,5,18.916,5,22.5v55c0,3.584,2.916,6.5,6.5,6.5h77c3.584,0,6.5-2.916,6.5-6.5v-55 C95,18.916,92.084,16,88.5,16z" opacity=".35"/><path fill="#f2f2f2" d="M86.5,14h-77C5.916,14,3,16.916,3,20.5v55C3,79.084,5.916,82,9.5,82h77 c3.584,0,6.5-2.916,6.5-6.5v-55C93,16.916,90.084,14,86.5,14z"/><path fill="#de5147" d="M9,21h78v55H9V21z"/><rect width="30" height="56" x="9" y="20" fill="#407845"/><path fill="#ffc571" d="M51.47,57.81c-4.808-0.144-26.858-13.854-27.01-16.038l1.218-2.022 c2.188,3.166,24.73,16.498,26.944,16.026L51.47,57.81"/><path d="M51.47,57.854L51.47,57.854c-2.564-0.076-9.83-3.96-15.276-7.26c-5.616-3.404-11.698-7.616-11.78-8.82 c0-0.01,0.002-0.018,0.006-0.026l1.218-2.022c0.008-0.014,0.022-0.022,0.038-0.022s0.03,0.006,0.038,0.02 c1.12,1.622,7.562,5.872,13.448,9.364c6.944,4.12,12.468,6.85,13.448,6.644c0.018-0.004,0.036,0.004,0.046,0.018 c0.01,0.014,0.012,0.034,0.004,0.05l-1.148,2.028C51.506,57.842,51.49,57.854,51.47,57.854z M24.506,41.783 c0.112,1.006,5.034,4.67,11.736,8.734c5.416,3.284,12.632,7.142,15.202,7.246l1.094-1.932 c-1.388,0.068-7.678-3.258-13.42-6.666c-5.826-3.458-12.2-7.66-13.434-9.334L24.506,41.783z"/><path fill="#ffc571" d="M25.422,39.475c-0.432,1.156,5.754,4.966,13.196,9.474s13.858,7.294,14.334,6.894 c0.03-0.052,0.234-0.402,0.216-0.4c-0.09,0.134-0.306,0.176-0.644,0.078c-2.01-0.578-7.254-2.976-13.748-6.898 c-6.494-3.924-12.144-7.538-13.022-9.074c-0.062-0.106-0.104-0.3-0.096-0.452h-0.022l-0.186,0.326L25.422,39.475 L25.422,39.475L25.422,39.475z M51.584,57.872c-0.082,0.148-0.234,0.152-0.522,0.12c-1.798-0.198-7.256-2.842-13.714-6.692 c-7.514-4.48-13.72-8.564-13.048-9.63l0.184-0.322l0.036,0.012c-0.606,1.808,12.248,9.13,13.004,9.596 c7.438,4.59,13.708,7.27,14.262,6.574L51.584,57.872L51.584,57.872L51.584,57.872z"/><path fill="#ef8630" d="M51.288,58.056c-0.068,0-0.146-0.008-0.232-0.016c-1.834-0.202-7.352-2.894-13.732-6.7 c-8.526-5.084-12.812-8.144-13.102-9.356c-0.032-0.132-0.018-0.246,0.04-0.338l0.182-0.32c0.01-0.018,0.032-0.028,0.054-0.02 l0.036,0.012c0.012,0.004,0.022,0.012,0.026,0.022c0.006,0.01,0.006,0.024,0.002,0.036c-0.2,0.6,1.154,2.598,12.482,9.246 c0.258,0.152,0.434,0.254,0.504,0.298c7.342,4.53,13.664,7.26,14.202,6.584c0.014-0.018,0.042-0.024,0.062-0.01 c0.02,0.014,0.026,0.04,0.014,0.06L51.624,57.9l-0.004,0C51.55,58.02,51.44,58.056,51.288,58.056z M24.452,41.493l-0.114,0.2 c-0.046,0.074-0.056,0.162-0.03,0.27c0.286,1.186,4.558,4.228,13.062,9.298c6.37,3.798,11.874,6.486,13.696,6.686 c0.282,0.03,0.41,0.024,0.478-0.098l0.002-0.004l0.116-0.2c-0.062,0.016-0.138,0.024-0.226,0.024 c-1.568,0-7.254-2.556-13.936-6.68c-0.07-0.044-0.244-0.146-0.502-0.296C28.674,45.812,24.458,42.721,24.452,41.493z M52.806,55.92c-1.176,0-7.22-2.696-14.212-6.932c-8.008-4.852-13.646-8.376-13.214-9.528c0-0.002,0.002-0.004,0.002-0.004 l0.026-0.052l0.188-0.328c0.008-0.014,0.024-0.022,0.04-0.022h0.022c0.012,0,0.024,0.006,0.032,0.014 c0.008,0.01,0.012,0.022,0.012,0.034c-0.008,0.138,0.032,0.324,0.09,0.426c0.93,1.626,7.438,5.694,13.006,9.058 c6.106,3.688,11.532,6.26,13.738,6.894c0.296,0.084,0.512,0.064,0.594-0.06c0.006-0.01,0.018-0.018,0.03-0.02 c0.018-0.002,0.036,0.006,0.046,0.02c0.02,0.03,0.024,0.034-0.19,0.406l-0.024,0.042c-0.002,0.004-0.006,0.008-0.01,0.012 C52.948,55.906,52.888,55.92,52.806,55.92z M25.462,39.495c-0.42,1.178,6.804,5.554,13.178,9.416 c7.646,4.632,13.802,7.236,14.276,6.904l0.02-0.034c0.042-0.074,0.078-0.138,0.106-0.188c-0.13,0.046-0.312,0.038-0.534-0.024 c-2.21-0.636-7.646-3.21-13.76-6.902c-5.576-3.368-12.098-7.446-13.038-9.09c-0.05-0.086-0.086-0.22-0.098-0.346 L25.462,39.495z"/><path fill="#ffc571" d="M39.044,43.095c4.812-0.038,10.752-0.656,14.17-2.012l-0.736-1.192 c-2.02,1.114-7.992,1.846-13.474,1.956c-6.484-0.06-11.06-0.66-13.354-2.194l-0.696,1.27 C29.17,42.699,33.488,43.077,39.044,43.095"/><path d="M39.044,43.141L39.044,43.141c-5.566-0.018-9.868-0.388-14.108-2.176c-0.012-0.004-0.02-0.014-0.026-0.026 c-0.004-0.012-0.004-0.026,0.004-0.036l0.696-1.27c0.006-0.012,0.016-0.02,0.03-0.022c0.012-0.004,0.026,0,0.036,0.006 c2.136,1.428,6.372,2.122,13.33,2.186c4.954-0.1,11.278-0.752,13.452-1.95c0.022-0.012,0.048-0.004,0.06,0.016l0.736,1.192 c0.006,0.012,0.008,0.026,0.004,0.038c-0.004,0.012-0.014,0.022-0.026,0.028c-3.606,1.432-9.69,1.98-14.184,2.016 L39.044,43.141z M25.018,40.901c4.21,1.764,8.49,2.132,14.024,2.15h0.002c4.464-0.036,10.502-0.576,14.104-1.988l-0.686-1.108 c-2.222,1.192-8.52,1.842-13.458,1.94c-6.934-0.064-11.174-0.754-13.338-2.174L25.018,40.901z"/><path fill="#ffc571" d="M53.412,41.111c-0.118,0.188-2.346,0.954-5.63,1.518c-2.226,0.338-5.13,0.628-8.756,0.63 c-3.444,0.004-6.256-0.24-8.386-0.528c-3.448-0.538-5.226-1.288-5.884-1.552c0.062-0.124,0.104-0.212,0.164-0.328 c1.894,0.75,3.68,1.204,5.774,1.524c2.116,0.286,4.894,0.534,8.32,0.53c3.608-0.004,6.48-0.314,8.694-0.642 c3.368-0.542,5.206-1.238,5.466-1.56L53.412,41.111L53.412,41.111L53.412,41.111z M52.766,39.901 c-0.364,0.292-2.184,0.934-5.384,1.444c-2.136,0.304-4.85,0.578-8.32,0.582c-3.296,0.004-5.988-0.218-8.036-0.516 c-3.25-0.422-4.978-1.186-5.602-1.408c0.062-0.106,0.126-0.212,0.19-0.32c0.486,0.244,2.154,0.918,5.448,1.382 c2.024,0.286,4.722,0.5,8,0.496c3.452-0.004,6.136-0.282,8.258-0.584c3.216-0.44,4.946-1.26,5.21-1.466L52.766,39.901 L52.766,39.901L52.766,39.901z"/><path fill="#ef8630" d="M38.958,43.305c-2.924,0-5.724-0.178-8.324-0.528c-3.336-0.52-5.144-1.252-5.824-1.526 l-0.07-0.03c-0.012-0.004-0.022-0.014-0.026-0.026s-0.004-0.026,0.002-0.036c0.026-0.05,0.048-0.094,0.068-0.138 c0.03-0.062,0.06-0.122,0.096-0.192c0.01-0.02,0.036-0.03,0.058-0.022c1.814,0.72,3.592,1.188,5.764,1.522 c2.604,0.352,5.38,0.53,8.25,0.53c0.022,0,0.042,0,0.064,0c2.948-0.002,5.79-0.214,8.686-0.642 c3.326-0.534,5.18-1.224,5.436-1.544c0.01-0.012,0.022-0.018,0.04-0.018c0.014,0.002,0.028,0.01,0.036,0.022l0.238,0.408 c0.008,0.014,0.008,0.032,0,0.046c-0.002,0.004-0.004,0.006-0.006,0.008c-0.182,0.226-2.478,0.984-5.656,1.532 c-2.738,0.416-5.686,0.628-8.762,0.632C39.004,43.305,38.98,43.305,38.958,43.305z M24.82,41.155l0.026,0.01 c0.678,0.274,2.478,1.002,5.802,1.52c2.594,0.35,5.392,0.528,8.31,0.528c0.022,0,0.046,0,0.068,0 c3.072-0.002,6.014-0.214,8.748-0.63c3.252-0.56,5.354-1.294,5.582-1.48l-0.19-0.328c-0.368,0.328-2.078,0.99-5.448,1.53 c-2.902,0.43-5.748,0.64-8.7,0.644c-2.902,0.004-5.698-0.176-8.328-0.53c-2.164-0.332-3.938-0.798-5.746-1.512 c-0.028,0.054-0.052,0.102-0.076,0.152C24.852,41.091,24.836,41.121,24.82,41.155z M38.996,41.971 c-2.892,0-5.648-0.178-7.974-0.516c-2.876-0.374-4.546-1.008-5.348-1.312c-0.102-0.04-0.19-0.072-0.262-0.098 c-0.012-0.004-0.022-0.014-0.028-0.028s-0.004-0.026,0.004-0.038c0.062-0.108,0.126-0.214,0.19-0.32 c0.012-0.02,0.038-0.028,0.06-0.018c0.284,0.142,1.878,0.876,5.434,1.378c1.604,0.226,4.274,0.496,7.918,0.496 c0.026,0,0.05,0,0.076,0c3.758-0.004,6.508-0.336,8.252-0.584c3.076-0.422,4.878-1.214,5.188-1.456 c0.01-0.008,0.024-0.012,0.036-0.008c0.012,0.002,0.024,0.01,0.03,0.022l0.234,0.388c0.004,0.008,0.006,0.016,0.006,0.016 c0,0.022-0.006,0.036-0.018,0.044c-0.358,0.286-2.142,0.934-5.404,1.452c-2.722,0.388-5.446,0.578-8.326,0.582 C39.04,41.971,39.018,41.971,38.996,41.971z M25.492,39.979c0.062,0.022,0.132,0.05,0.214,0.08 c0.8,0.304,2.462,0.934,5.328,1.306c2.322,0.336,5.074,0.514,7.962,0.514c0.022,0,0.046,0,0.068,0 c2.876-0.002,5.596-0.192,8.312-0.58c3.158-0.502,4.914-1.12,5.33-1.41l-0.188-0.312c-0.35,0.23-2.012,1.01-5.19,1.444 c-1.746,0.25-4.502,0.582-8.264,0.586c-0.026,0-0.05,0-0.076,0c-3.65,0-6.326-0.27-7.932-0.496 c-3.436-0.484-5.052-1.188-5.424-1.368C25.586,39.821,25.538,39.901,25.492,39.979z"/><path fill="#ffc571" d="M23.24,48.87c2.96,1.586,9.536,2.386,15.758,2.44c5.666,0.008,13.046-0.872,15.806-2.33 l-0.076-1.588c-0.864,1.344-8.772,2.634-15.79,2.58c-7.018-0.052-13.536-1.132-15.708-2.53L23.24,48.87"/><path d="M39.08,51.356c-0.028,0-0.056,0-0.084,0c-5.512-0.048-12.552-0.716-15.778-2.446 c-0.016-0.008-0.024-0.026-0.024-0.042l-0.012-1.424c0-0.016,0.008-0.032,0.024-0.04c0.014-0.008,0.032-0.008,0.046,0.002 c2.192,1.41,8.788,2.472,15.684,2.524c6.954,0.048,14.904-1.24,15.752-2.56c0.01-0.016,0.032-0.024,0.05-0.02 c0.02,0.006,0.032,0.022,0.034,0.042l0.076,1.588c0,0.018-0.008,0.034-0.024,0.042C52.048,50.486,44.66,51.356,39.08,51.356z M23.284,48.844c3.224,1.712,10.224,2.374,15.712,2.422c5.558,0.008,12.962-0.852,15.758-2.31l-0.068-1.434 c-1.188,1.328-8.822,2.552-15.752,2.5c-6.838-0.052-13.388-1.096-15.662-2.492L23.284,48.844z"/><path fill="#ffc571" d="M54.952,48.642v0.378c-0.414,0.494-3.016,1.24-6.278,1.766 c-2.482,0.38-5.718,0.666-9.752,0.666c-3.832,0-6.886-0.272-9.256-0.634c-3.746-0.544-6.14-1.494-6.622-1.778l0.002-0.442 c1.444,0.956,5.358,1.656,6.672,1.87c2.354,0.36,5.39,0.63,9.202,0.63c4.014,0,7.232-0.284,9.698-0.66 C50.962,50.1,54.296,49.226,54.952,48.642L54.952,48.642L54.952,48.642z M54.954,47.296v0.378 c-0.414,0.494-3.016,1.24-6.278,1.766c-2.482,0.38-5.718,0.666-9.752,0.666c-3.832,0-6.886-0.272-9.256-0.634 c-3.746-0.542-6.14-1.494-6.622-1.778l0.002-0.442c1.444,0.956,5.358,1.656,6.672,1.87c2.354,0.36,5.39,0.63,9.202,0.63 c4.014,0,7.232-0.284,9.698-0.662C50.964,48.754,54.298,47.878,54.954,47.296L54.954,47.296L54.954,47.296z"/><path fill="#ef8630" d="M38.924,51.498c-3.39,0-6.506-0.214-9.262-0.634c-3.586-0.52-6.06-1.444-6.638-1.784 c-0.014-0.008-0.022-0.024-0.022-0.04l0.002-0.442c0-0.016,0.01-0.032,0.024-0.04s0.032-0.008,0.046,0.002 c1.448,0.96,5.46,1.668,6.654,1.864c2.73,0.418,5.824,0.63,9.196,0.63c3.562,0,6.822-0.222,9.692-0.66 c2.322-0.334,5.65-1.204,6.306-1.784c0.012-0.01,0.026-0.014,0.042-0.012C54.984,48.602,55,48.622,55,48.642v0.378 c0,0.01-0.004,0.02-0.01,0.03c-0.43,0.514-3.082,1.262-6.306,1.782C45.79,51.274,42.508,51.498,38.924,51.498z M23.092,49.014 c0.428,0.238,2.73,1.2,6.582,1.76c2.752,0.42,5.862,0.634,9.248,0.634c3.578,0,6.858-0.224,9.744-0.664 c3.126-0.504,5.794-1.248,6.238-1.738V48.74c-0.812,0.588-4.022,1.422-6.278,1.746c-2.874,0.438-6.14,0.662-9.706,0.662 c-3.376,0-6.474-0.212-9.21-0.63c-1.182-0.192-5.102-0.886-6.62-1.832L23.092,49.014z M38.926,50.15 c-3.394,0-6.51-0.214-9.262-0.634c-3.586-0.52-6.06-1.442-6.638-1.784c-0.014-0.008-0.022-0.024-0.022-0.024l0.002-0.458 c0-0.016,0.01-0.032,0.024-0.04s0.032-0.008,0.046,0.002c1.45,0.96,5.46,1.668,6.654,1.864c2.73,0.418,5.824,0.63,9.196,0.63 c3.562,0,6.824-0.222,9.692-0.66c2.324-0.334,5.654-1.204,6.306-1.784c0.01-0.01,0.026-0.014,0.038-0.01 c0.014,0.002,0.026,0.012,0.032,0.024C54.998,47.282,55,47.288,55,47.296v0.378c0,0-0.004,0.02-0.01,0.03 c-0.43,0.512-3.082,1.262-6.304,1.782C45.794,49.926,42.51,50.15,38.926,50.15z M23.094,47.666 c0.428,0.238,2.73,1.2,6.582,1.76c2.748,0.42,5.86,0.634,9.248,0.634c3.58,0,6.858-0.224,9.744-0.664 c3.126-0.504,5.794-1.248,6.238-1.738V47.39c-0.812,0.588-4.022,1.422-6.278,1.746c-2.872,0.438-6.138,0.662-9.706,0.662 c-3.376,0-6.474-0.212-9.21-0.63c-1.18-0.192-5.1-0.884-6.62-1.832L23.094,47.666z"/><path fill="#ffc571" d="M38.982,57.536c-6.808-0.04-12.642-1.848-13.874-2.148l0.898,1.4 c2.176,0.912,7.866,2.27,13.04,2.12c5.174-0.15,9.696-0.55,12.882-2.094l0.922-1.452C50.68,56.382,43.29,57.526,38.982,57.536"/><path d="M38.252,58.966c-4.882,0-10.124-1.24-12.26-2.136c-0.008-0.004-0.016-0.01-0.02-0.018l-0.898-1.4 c-0.01-0.016-0.01-0.036,0.002-0.05c0.01-0.016,0.03-0.022,0.048-0.018c0.146,0.036,0.358,0.092,0.626,0.164 c1.98,0.532,7.24,1.946,13.236,1.982c4.334-0.01,11.71-1.166,13.848-2.168c0.018-0.008,0.04-0.004,0.054,0.01 c0.014,0.016,0.016,0.038,0.004,0.054l-0.92,1.452c-0.004,0.008-0.012,0.012-0.018,0.016c-3.324,1.612-8.164,1.962-12.9,2.1 C38.786,58.964,38.518,58.966,38.252,58.966z M26.038,56.754c2.254,0.94,7.932,2.256,13.008,2.112 c4.72-0.138,9.542-0.484,12.852-2.084l0.834-1.314c-2.31,0.992-9.494,2.104-13.748,2.114l0,0 c-6.008-0.036-11.278-1.452-13.26-1.984c-0.206-0.056-0.378-0.102-0.512-0.136L26.038,56.754z"/><path fill="#ffc571" d="M52.276,56.49c-0.136,0.206-0.274,0.41-0.414,0.608c-1.502,0.528-3.87,1.082-4.87,1.244 c-2.042,0.418-5.2,0.728-8.002,0.73c-6.032-0.088-10.968-1.264-13.29-2.268l-0.188-0.32l0.03-0.048l0.318,0.122 c4.13,1.472,8.768,2.06,13.164,2.164c2.792,0.01,5.586-0.318,7.846-0.722c3.466-0.692,4.866-1.212,5.296-1.45L52.276,56.49 L52.276,56.49L52.276,56.49z M53.074,55.178c0.004,0.004,0.008,0.008,0.01,0.012c-0.102,0.17-0.206,0.344-0.312,0.518 c-0.802,0.286-2.976,0.92-6.154,1.362c-2.092,0.284-3.394,0.56-7.558,0.64c-7.802-0.198-12.854-1.718-14.054-2.092 l-0.178-0.34c4.522,1.176,9.14,1.996,14.232,2.08c3.81-0.08,5.43-0.36,7.506-0.642c3.704-0.574,5.57-1.182,6.13-1.356 c-0.008-0.01-0.016-0.02-0.024-0.032L53.074,55.178L53.074,55.178L53.074,55.178z"/><path fill="#ef8630" d="M38.99,59.114c-6.15-0.09-11.012-1.28-13.308-2.27c-0.008-0.004-0.016-0.01-0.02-0.018 l-0.188-0.32c-0.008-0.014-0.008-0.032,0-0.046l0.03-0.048c0.012-0.018,0.034-0.024,0.052-0.018l0.318,0.122 c3.686,1.314,8.11,2.04,13.148,2.162c3.07,0.014,5.958-0.386,7.838-0.72c3.868-0.772,5.022-1.3,5.284-1.444l0.108-0.06 c0.018-0.01,0.04-0.006,0.054,0.008s0.016,0.036,0.004,0.054c-0.14,0.214-0.28,0.418-0.414,0.608 c-0.006,0.008-0.012,0.014-0.022,0.016c-1.494,0.524-3.848,1.078-4.878,1.246C44.878,58.82,41.658,59.114,38.99,59.114z M25.73,56.77c2.474,1.064,7.528,2.174,13.26,2.258c2.664-0.002,5.876-0.294,7.992-0.728c1.026-0.166,3.362-0.716,4.852-1.238 c0.1-0.142,0.202-0.292,0.306-0.446c-0.34,0.174-1.576,0.694-5.262,1.43c-1.884,0.336-4.774,0.73-7.854,0.722 c-5.05-0.122-9.482-0.85-13.178-2.168l-0.278-0.108L25.73,56.77z M39.062,57.752c-6.972-0.176-11.806-1.388-14.068-2.094 c-0.012-0.004-0.02-0.012-0.026-0.022l-0.178-0.34c-0.008-0.016-0.006-0.034,0.004-0.048s0.028-0.02,0.046-0.014 c5.168,1.344,9.686,2.004,14.22,2.078c3.396-0.072,5.068-0.304,6.842-0.55c0.216-0.03,0.434-0.06,0.658-0.09 c3.576-0.554,5.448-1.142,6.062-1.336l0.006-0.002c0-0.006,0-0.012,0-0.018c0.004-0.014,0.014-0.024,0.026-0.03l0.402-0.15 c0.02-0.008,0.042,0,0.052,0.018l0,0l0,0l0.006,0.008c0.012,0.014,0.012,0.034,0.004,0.05 c-0.102,0.17-0.206,0.344-0.312,0.518c-0.006,0.008-0.014,0.016-0.022,0.018c-1.076,0.384-3.334,0.97-6.162,1.364 c-0.308,0.042-0.6,0.084-0.886,0.124C44.062,57.478,42.614,57.684,39.062,57.752z M25.038,55.58 c2.264,0.706,7.082,1.908,14.024,2.084c3.546-0.068,4.99-0.276,6.664-0.514c0.286-0.04,0.578-0.082,0.886-0.124 c2.808-0.392,5.052-0.972,6.13-1.354c0.086-0.14,0.17-0.28,0.254-0.418L52.74,55.35c0.002,0.008,0.002,0.016-0.002,0.024 c-0.004,0.014-0.014,0.024-0.028,0.028l-0.06,0.02c-0.616,0.194-2.494,0.784-6.076,1.338c-0.224,0.03-0.442,0.06-0.658,0.09 c-1.774,0.246-3.452,0.48-6.852,0.552c-4.516-0.074-9.014-0.728-14.148-2.058L25.038,55.58z"/><path fill="#ffc571" d="M38.96,32.343c-8.672,0-15.746,7.03-15.746,15.65s7.074,15.65,15.746,15.65 s15.806-7.03,15.806-15.65C54.764,39.373,47.632,32.343,38.96,32.343z M49.04,57.848c-2.612,2.498-6.074,4.106-10.118,4.18 c-4.516,0.082-8.774-2.85-9.916-4.138c-2.232-2.518-4.05-5.716-4.11-10.028c0.276-4.868,2.196-8.26,4.976-10.586 c2.782-2.326,6.486-3.458,9.57-3.378c3.558,0.094,7.716,1.832,10.588,5.284c1.882,2.262,2.696,4.716,3.124,8.434 C53.178,52.078,50.886,56.082,49.04,57.848z"/><path fill="#ef8630" d="M39.002,63.734c-8.716,0-15.806-7.064-15.806-15.746s7.09-15.746,15.806-15.746 s15.806,7.064,15.806,15.746S47.718,63.734,39.002,63.734z M39.002,32.335c-8.664,0-15.714,7.022-15.714,15.654 s7.05,15.654,15.714,15.654s15.714-7.022,15.714-15.654S47.666,32.335,39.002,32.335z M39.002,63.39 c-4.102,0-7.976-1.606-10.908-4.524c-2.934-2.92-4.55-6.782-4.55-10.876c0-4.094,1.616-7.956,4.55-10.876 c2.932-2.918,6.806-4.524,10.908-4.524s7.976,1.606,10.908,4.524c2.934,2.92,4.55,6.782,4.55,10.876s-1.616,7.956-4.55,10.876 C46.978,61.782,43.104,63.39,39.002,63.39z M39.002,32.681c-8.474,0-15.368,6.868-15.368,15.31S30.528,63.3,39.002,63.3 S54.37,56.432,54.37,47.99S47.476,32.681,39.002,32.681z"/><path fill="#ef8630" d="M39.014,62.402c-3.844,0-7.472-1.506-10.218-4.238c-2.75-2.736-4.262-6.354-4.262-10.188 s1.514-7.454,4.262-10.188c2.746-2.732,6.376-4.238,10.218-4.238c3.844,0,7.472,1.506,10.218,4.238 c2.748,2.736,4.262,6.354,4.262,10.188s-1.514,7.454-4.262,10.188C46.486,60.896,42.858,62.402,39.014,62.402z M39.014,33.641 c-7.934,0-14.39,6.432-14.39,14.336s6.456,14.336,14.39,14.336s14.39-6.432,14.39-14.336 C53.406,40.071,46.95,33.641,39.014,33.641z M39.014,62.056c-3.752,0-7.294-1.468-9.974-4.136 c-2.684-2.67-4.16-6.202-4.16-9.944c0-3.744,1.478-7.274,4.16-9.944c2.68-2.668,6.222-4.136,9.974-4.136 s7.294,1.47,9.974,4.136c2.684,2.67,4.16,6.202,4.16,9.944s-1.478,7.274-4.16,9.944 C46.308,60.588,42.766,62.056,39.014,62.056z M39.014,33.985c-7.744,0-14.044,6.276-14.044,13.99s6.3,13.99,14.044,13.99 s14.044-6.276,14.044-13.99S46.758,33.985,39.014,33.985z"/><path fill="#ffc571" d="M39.65,32.227H38.3l0.002,31.545h1.356L39.65,32.227z"/><path fill="#ef8630" d="M39.656,63.816H38.3c-0.026,0-0.046-0.02-0.046-0.046l-0.002-31.545 c0,0,0.004-0.024,0.014-0.032s0.02-0.014,0.032-0.014h1.35c0.026,0,0.046,0.02,0.046,0.046L39.7,63.77 c0,0-0.004,0.024-0.014,0.032C39.68,63.812,39.668,63.816,39.656,63.816z M38.346,63.726h1.264l-0.006-31.453h-1.26 L38.346,63.726z"/><path fill="#ffc571" d="M39.514,32.047h0.344l0.002,31.907h-0.344L39.514,32.047L39.514,32.047z M38.174,32.047h0.346 v31.907h-0.346V32.047L38.174,32.047z"/><path fill="#ef8630" d="M38.522,64h-0.346c-0.026,0-0.046-0.02-0.046-0.046V32.051v-0.004 c0-0.026,0.022-0.052,0.046-0.046h0.346c0.026,0,0.046,0.02,0.046,0.046v31.907c0,0-0.004,0.024-0.014,0.032 C38.544,63.996,38.534,64,38.522,64z M38.22,63.91h0.256V32.093H38.22V63.91z M39.862,64h-0.344 c-0.026,0-0.046-0.02-0.046-0.046L39.47,32.047c0,0,0.004-0.024,0.014-0.032c0.006-0.008,0.018-0.014,0.03-0.014h0.344 c0.026,0,0.046,0.02,0.046,0.046l0.002,31.907c0,0-0.004,0.024-0.014,0.032C39.884,63.994,39.874,64,39.862,64z M39.562,63.908h0.252l-0.002-31.817H39.56L39.562,63.908z"/><path fill="#ffc571" d="M54.772,48.596V47.43l-0.954-0.884l-5.412-1.426l-7.8-0.792l-9.392,0.476l-6.686,1.586 l-1.35,0.996v1.166l3.42-1.528l8.118-1.268h7.8l5.73,0.634l3.98,0.952L54.772,48.596z"/><path fill="#ef8630" d="M54.772,48.642c-0.006,0-0.014-0.002-0.02-0.004l-2.546-1.258l-3.97-0.948l-5.724-0.634h-7.794 l-8.104,1.266L23.2,48.592c-0.014,0.006-0.03,0.006-0.044-0.004c-0.012-0.008-0.02-0.022-0.02-0.038v-1.166 c0-0.014,0.006-0.028,0.018-0.036l1.35-0.996c0.004-0.004,0.01-0.006,0.016-0.008l6.686-1.586l9.4-0.476l7.806,0.792 l5.418,1.428c0.008,0.002,0.014,0.006,0.02,0.01l0.954,0.884c0.01,0.008,0.014,0.02,0.014,0.034v1.166 c0,0.016-0.008,0.03-0.022,0.038C54.79,48.64,54.782,48.642,54.772,48.642z M42.518,45.708l5.736,0.634l3.984,0.952l2.49,1.23 V47.45l-0.93-0.864l-5.4-1.424l-7.792-0.792l-9.384,0.476l-6.668,1.582l-1.324,0.976v1.074l3.354-1.5 c0.004-0.002,0.008-0.002,0.012-0.004l8.118-1.268L42.518,45.708z"/><path fill="#ffc571" d="M39.008,45.559c3.722-0.006,7.334,0.352,10.198,0.906c2.956,0.588,5.036,1.324,5.746,2.152 v0.41c-0.858-1.03-3.656-1.784-5.812-2.214c-2.842-0.55-6.43-0.906-10.13-0.9c-3.906,0.008-7.542,0.376-10.344,0.92 c-2.248,0.444-5.244,1.326-5.62,2.198v-0.426c0.206-0.602,2.438-1.502,5.568-2.128C31.436,45.928,35.08,45.567,39.008,45.559 L39.008,45.559z M39.01,44.213c3.722-0.006,7.334,0.352,10.198,0.906c2.956,0.588,5.036,1.324,5.746,2.152v0.41 c-0.858-1.028-3.656-1.784-5.812-2.214c-2.842-0.552-6.43-0.906-10.13-0.9c-3.906,0.006-7.526,0.376-10.326,0.92 c-2.168,0.41-5.288,1.328-5.636,2.198v-0.426c0.206-0.596,2.482-1.528,5.568-2.128C31.438,44.583,35.082,44.221,39.01,44.213 L39.01,44.213z"/><path fill="#ef8630" d="M23.046,49.074c-0.004,0-0.006,0-0.01,0C23.016,49.07,23,49.05,23,49.03v-0.426 c0,0,0-0.01,0.002-0.014c0.22-0.646,2.576-1.554,5.602-2.158c3.014-0.586,6.708-0.912,10.404-0.918v0.046v-0.046 c0.034,0,0.07,0,0.106,0c3.498,0,7.08,0.322,10.1,0.908c3.086,0.614,5.082,1.364,5.772,2.166 c0.006,0.008,0.012,0.018,0.01,0.03v0.41c0,0.02-0.012,0.036-0.03,0.042c-0.018,0.006-0.038,0-0.05-0.014 c-0.906-1.088-4.014-1.844-5.786-2.2c-2.994-0.58-6.548-0.898-10.018-0.898c-0.034,0-0.07,0-0.104,0 c-3.65,0.006-7.32,0.334-10.336,0.92c-2.448,0.484-5.242,1.37-5.586,2.17C23.08,49.064,23.064,49.074,23.046,49.074z M39.112,45.866c3.476,0,7.036,0.32,10.036,0.9c1.736,0.348,4.744,1.08,5.758,2.14v-0.274 c-0.688-0.782-2.662-1.516-5.71-2.124c-3.046-0.59-6.668-0.916-10.188-0.906c-3.688,0.006-7.378,0.332-10.386,0.916 c-3.344,0.666-5.34,1.572-5.532,2.09v0.252c0.668-0.898,3.758-1.718,5.564-2.076c3.022-0.588,6.698-0.914,10.352-0.92 C39.044,45.866,39.078,45.866,39.112,45.866z M23.048,47.728c-0.002,0-0.006,0-0.008,0c-0.022-0.004-0.038-0.022-0.038-0.044 v-0.426c0,0,0-0.01,0.002-0.014c0.226-0.654,2.634-1.582,5.604-2.158c3.012-0.586,6.708-0.912,10.402-0.918l0,0 c3.528-0.004,7.154,0.316,10.206,0.908c3.086,0.614,5.082,1.364,5.772,2.166C54.996,47.248,55,47.26,55,47.27v0.41 c0,0.02-0.012,0.036-0.03,0.042c-0.018,0.006-0.038,0.002-0.05-0.014c-0.908-1.088-4.014-1.844-5.786-2.198 c-3.024-0.586-6.616-0.908-10.122-0.898c-3.636,0.006-7.3,0.332-10.318,0.92c-2.484,0.468-5.29,1.388-5.602,2.17 C23.082,47.718,23.066,47.728,23.048,47.728z M39.118,44.521c3.474,0,7.032,0.32,10.03,0.9c1.736,0.346,4.744,1.08,5.758,2.14 v-0.274c-0.688-0.782-2.66-1.516-5.71-2.124c-3.046-0.59-6.666-0.918-10.188-0.906l0,0c-3.69,0.006-7.378,0.332-10.386,0.916 c-3.214,0.624-5.33,1.55-5.532,2.09v0.248c0.636-0.864,3.62-1.7,5.582-2.072c3.022-0.588,6.694-0.914,10.334-0.92 C39.046,44.521,39.082,44.521,39.118,44.521z"/><path fill="#ffc571" d="M38.934,37.345c5.866-0.03,10.982,0.816,13.322,2.012l0.854,1.472 c-2.034-1.092-7.554-2.228-14.168-2.058c-5.388,0.034-11.146,0.59-14.036,2.126l1.02-1.698 C28.298,37.973,33.888,37.351,38.934,37.345"/><path fill="#ef8630" d="M24.906,40.941c-0.012,0-0.024-0.004-0.034-0.014c-0.014-0.014-0.016-0.038-0.006-0.054 l1.02-1.698c0.004-0.008,0.01-0.014,0.018-0.018c2.468-1.274,8.318-1.852,13.024-1.858c0.002,0,0.004,0,0.006,0 c5.652-0.024,10.888,0.764,13.342,2.016c0.008,0.004,0.014,0.01,0.018,0.018l0.854,1.472c0.01,0.018,0.008,0.04-0.006,0.054 s-0.036,0.018-0.054,0.008c-2.134-1.146-7.676-2.22-14.144-2.052c-3.788,0.024-10.644,0.33-14.014,2.12 C24.922,40.939,24.914,40.941,24.906,40.941z M25.958,39.231l-0.93,1.55c3.434-1.734,10.17-2.034,13.914-2.058 c6.346-0.162,11.81,0.868,14.05,1.99l-0.768-1.324c-2.448-1.242-7.656-2.026-13.284-2c-0.002,0-0.004,0-0.006,0 C34.246,37.397,28.42,37.969,25.958,39.231z"/><path fill="#ffc571" d="M39.012,38.559c3.346-0.008,6.578,0.18,9.148,0.642c2.394,0.444,4.678,1.11,5.004,1.468 l0.254,0.446c-0.794-0.516-2.77-1.092-5.306-1.57c-2.548-0.476-5.778-0.634-9.104-0.626c-3.776-0.012-6.71,0.186-9.228,0.622 c-2.662,0.496-4.51,1.206-4.966,1.542l0.248-0.47c0.886-0.45,2.29-0.992,4.652-1.416 C32.316,38.721,35.28,38.579,39.012,38.559L39.012,38.559L39.012,38.559z M39.01,37.213c3.202-0.008,6.362,0.17,8.826,0.61 c1.944,0.376,3.866,0.966,4.568,1.488l0.37,0.586c-0.63-0.696-2.998-1.358-5.09-1.726c-2.446-0.42-5.474-0.586-8.676-0.612 c-3.36,0.01-6.464,0.214-8.874,0.652c-2.298,0.436-3.782,0.952-4.41,1.354l0.326-0.49c0.866-0.454,2.266-0.872,4.028-1.212 C32.506,37.423,35.63,37.223,39.01,37.213L39.01,37.213z"/><path fill="#ef8630" d="M53.416,41.159c-0.008,0-0.018-0.002-0.024-0.008c-0.778-0.506-2.706-1.076-5.29-1.564 c-2.27-0.424-5.332-0.636-9.096-0.626c-3.772-0.014-6.702,0.184-9.22,0.622c-2.648,0.494-4.486,1.194-4.946,1.534 c-0.018,0.012-0.04,0.012-0.056-0.002c-0.016-0.014-0.02-0.036-0.01-0.056l0.248-0.472c0.004-0.008,0.012-0.016,0.02-0.02 c1.194-0.606,2.72-1.072,4.664-1.42c2.358-0.43,5.054-0.614,9.308-0.636l0,0l0,0c3.602-0.008,6.768,0.212,9.156,0.642 c2.44,0.452,4.696,1.118,5.03,1.482l0.258,0.454c0.01,0.018,0.006,0.042-0.008,0.056 C53.44,41.155,53.428,41.159,53.416,41.159z M39.256,38.871c3.658,0,6.638,0.21,8.862,0.628 c2.444,0.462,4.306,0.998,5.172,1.486l-0.168-0.294c-0.31-0.338-2.59-1.004-4.972-1.446c-2.384-0.428-5.546-0.652-9.14-0.64 l0,0c-4.246,0.024-6.938,0.208-9.292,0.636c-1.928,0.346-3.442,0.806-4.626,1.406l-0.16,0.306 c0.638-0.368,2.398-1,4.836-1.456c2.524-0.438,5.458-0.636,9.236-0.624C39.09,38.871,39.174,38.871,39.256,38.871z M52.776,39.945c-0.012,0-0.024-0.006-0.034-0.016c-0.648-0.718-3.132-1.372-5.064-1.712 c-2.224-0.382-5.058-0.582-8.668-0.612c-3.506,0.01-6.572,0.234-8.866,0.65c-2.038,0.386-3.68,0.89-4.394,1.348 c-0.018,0.012-0.042,0.008-0.058-0.006c-0.016-0.016-0.018-0.04-0.006-0.056l0.326-0.49c0.004-0.006,0.01-0.012,0.016-0.016 c0.86-0.45,2.256-0.872,4.04-1.216c2.29-0.416,5.382-0.64,8.94-0.65l0,0l0,0c3.496-0.008,6.55,0.202,8.834,0.612 c2.084,0.404,3.928,1.006,4.588,1.498c0.004,0.004,0.008,0.008,0.012,0.012l0.37,0.586c0.012,0.02,0.008,0.046-0.012,0.06 C52.794,39.941,52.786,39.945,52.776,39.945z M39.01,37.513c3.616,0.03,6.456,0.23,8.684,0.614 c1.76,0.312,3.978,0.882,4.876,1.532l-0.2-0.316c-0.656-0.482-2.48-1.076-4.544-1.476c-2.278-0.408-5.332-0.62-8.818-0.61l0,0 c-3.552,0.01-6.638,0.234-8.922,0.648c-1.766,0.342-3.152,0.758-4.004,1.202l-0.21,0.314c0.794-0.436,2.354-0.898,4.252-1.258 C32.426,37.749,35.498,37.523,39.01,37.513z"/><path fill="#ffc571" d="M46.84,54.514c-2.9-0.54-5.804-0.618-7.834-0.594c-9.774,0.114-12.932,2-13.318,2.57 l-0.73-1.186c2.488-1.796,7.812-2.804,14.1-2.702c3.266,0.054,6.084,0.27,8.456,0.726L46.84,54.514"/><path fill="#ffc571" d="M25.688,56.536L25.688,56.536c-0.016,0-0.03-0.008-0.038-0.022l-0.73-1.186 c-0.012-0.02-0.008-0.046,0.012-0.06c2.494-1.8,7.778-2.814,14.128-2.71c3.448,0.056,6.218,0.294,8.464,0.728 c0.014,0.002,0.026,0.012,0.032,0.026c0.006,0.014,0.006,0.028-0.002,0.042l-0.674,1.184c-0.01,0.018-0.034,0.028-0.054,0.02 c-2.298-0.426-4.928-0.626-7.82-0.592c-9.51,0.112-12.858,1.924-13.28,2.55C25.718,56.528,25.704,56.536,25.688,56.536z M25.02,55.318l0.674,1.094c0.576-0.682,4.024-2.426,13.312-2.536c2.886-0.034,5.514,0.164,7.81,0.588l0.626-1.102 c-2.23-0.424-4.974-0.658-8.384-0.714C32.754,52.546,27.512,53.542,25.02,55.318z"/><path fill="#f9b84f" d="M38.95,53.754c2.718,0.04,5.388,0.152,7.964,0.63l-0.186,0.328 c-2.392-0.44-4.944-0.608-7.768-0.594c-3.608-0.028-7.256,0.308-10.432,1.216c-1.002,0.278-2.662,0.92-2.83,1.45l-0.186-0.304 c0.054-0.314,1.056-0.964,2.932-1.488C32.08,53.952,35.482,53.778,38.95,53.754L38.95,53.754L38.95,53.754z M39.072,52.39 c2.818,0.052,5.726,0.182,8.554,0.74l-0.194,0.342c-2.554-0.504-4.994-0.674-8.344-0.724 c-3.618,0.006-7.458,0.264-10.948,1.274c-1.126,0.326-3.072,1.034-3.136,1.594l-0.186-0.328 c0.042-0.508,1.726-1.172,3.24-1.61C31.578,52.66,35.426,52.398,39.072,52.39L39.072,52.39z"/><path fill="#ef8630" d="M25.696,56.828c-0.016,0-0.03-0.008-0.038-0.022l-0.186-0.304 c-0.006-0.008-0.008-0.02-0.008-0.02c0.062-0.364,1.12-1.018,2.964-1.534c3.476-0.992,6.72-1.212,10.52-1.238 c0.004,0,0.004,0,0.006,0c2.58,0.038,5.328,0.142,7.966,0.632c0.014,0.002,0.026,0.012,0.032,0.024 c0.006,0.012,0.006,0.028-0.002,0.04l-0.186,0.328c-0.01,0.016-0.028,0.024-0.046,0.022c-2.252-0.414-4.788-0.612-7.76-0.594 c-3.99-0.034-7.494,0.378-10.42,1.214c-1.07,0.296-2.646,0.934-2.802,1.422c-0.006,0.016-0.02,0.028-0.036,0.03 C25.7,56.828,25.698,56.828,25.696,56.828z M25.556,56.472l0.134,0.218c0.3-0.53,1.86-1.132,2.824-1.398 c2.934-0.838,6.448-1.25,10.444-1.218c2.962-0.014,5.496,0.178,7.746,0.59l0.14-0.248c-2.614-0.48-5.34-0.58-7.896-0.618 c0,0-0.002,0-0.004,0c-3.79,0.026-7.026,0.246-10.492,1.234C26.588,55.554,25.634,56.19,25.556,56.472z M25.006,55.66 c-0.016,0-0.03-0.008-0.038-0.022l-0.186-0.328c-0.004-0.008-0.006-0.016-0.006-0.024c0.056-0.666,2.518-1.43,3.272-1.648 c3.008-0.872,6.51-1.28,11.024-1.29l0,0c2.756,0.052,5.702,0.176,8.562,0.742c0.014,0.002,0.026,0.012,0.032,0.024 c0.006,0.012,0.006,0.028-0.002,0.04l-0.194,0.342c-0.01,0.016-0.028,0.026-0.046,0.022c-2.712-0.536-5.294-0.678-8.336-0.724 c-4.49,0.008-7.964,0.412-10.934,1.272c-1.458,0.424-3.052,1.09-3.106,1.556c-0.002,0.018-0.016,0.034-0.034,0.038 C25.012,55.658,25.008,55.66,25.006,55.66z M24.866,55.278l0.128,0.226c0.318-0.688,2.836-1.438,3.136-1.524 c2.978-0.862,6.46-1.268,10.96-1.276c3.036,0.046,5.612,0.186,8.32,0.72l0.148-0.262c-2.834-0.554-5.754-0.676-8.486-0.728 c-4.506,0.008-8,0.416-11,1.286C26.176,54.27,24.924,54.878,24.866,55.278z"/><path fill="#ffc571" d="M52.956,55.486l-1.174,1.816l-3.374-2.986l-8.754-5.866l-9.868-5.39l-5.124-1.746l1.092-2.016 l0.37-0.202l3.184,0.792l10.506,5.39l6.048,3.806l5.094,3.646l2.07,2.378L52.956,55.486z"/><path fill="#ef8630" d="M51.782,57.346c-0.012,0-0.022-0.004-0.03-0.012l-3.374-2.986l-8.75-5.862l-9.866-5.388 l-5.116-1.742c-0.012-0.004-0.022-0.014-0.028-0.026c-0.004-0.012-0.004-0.026,0.002-0.038l1.092-2.016 c0.004-0.008,0.01-0.014,0.018-0.018l0.37-0.202c0.01-0.006,0.022-0.006,0.032-0.004l3.184,0.792l10.516,5.394l6.052,3.808 l5.096,3.648l2.078,2.386c0.01,0.01,0.012,0.024,0.01,0.038l-0.066,0.378c-0.002,0.006-0.004,0.012-0.006,0.016l-1.174,1.816 c-0.008,0.012-0.018,0.018-0.032,0.02C51.786,57.346,51.784,57.346,51.782,57.346z M24.726,41.287l5.072,1.728l9.876,5.394 l8.758,5.868l3.34,2.954l1.14-1.762l0.062-0.346L50.92,52.76l-5.086-3.64l-6.046-3.804l-10.502-5.388l-3.156-0.784 l-0.344,0.186L24.726,41.287z"/><path fill="#ffc571" d="M24.476,41.361c0.898-0.608,7.504,2.324,14.414,6.474c6.892,4.162,13.478,8.866,12.884,9.746 l-0.196,0.306l-0.09,0.07c0.02-0.014,0.118-0.134-0.01-0.46c-0.294-0.962-4.966-4.676-12.716-9.338 c-7.556-4.488-13.854-7.194-14.484-6.42L24.476,41.361L24.476,41.361L24.476,41.361z"/><path fill="#ffc571" d="M53.198,55.46c0.568-1.118-5.558-5.714-13.152-10.19c-7.77-4.386-13.37-6.968-14.392-6.198 l-0.228,0.412c-0.002,0.022,0.008-0.028,0.056-0.066c0.186-0.162,0.494-0.15,0.634-0.154 c1.762,0.026,6.792,2.332,13.848,6.362c3.092,1.794,13.064,8.164,13.026,9.956c0.002,0.154,0.012,0.186-0.046,0.262 L53.198,55.46L53.198,55.46L53.198,55.46z"/><path fill="#ef8630" d="M38.912,47.798c-6.9-4.144-13.522-7.108-14.464-6.474c-0.006,0.004-0.01,0.01-0.014,0.016 l-0.198,0.378c-0.01,0.02-0.004,0.046,0.016,0.058c0.018,0.012,0.046,0.008,0.06-0.01c0.568-0.696,6.5,1.722,14.426,6.43 c7.456,4.484,12.396,8.326,12.698,9.316c0.118,0.3,0.03,0.4,0.026,0.406L51.46,57.92c-0.02,0.016-0.022,0.044-0.008,0.064 c0.008,0.012,0.022,0.018,0.036,0.018c0.01,0,0.018-0.002,0.026-0.004l0.002-0.002l0.09-0.07 c0.004-0.004,0.008-0.008,0.01-0.012l0.194-0.306c0.044-0.066,0.056-0.15,0.034-0.25 C51.552,56.032,45.116,51.546,38.912,47.798z M51.736,57.556l-0.146,0.23c0-0.076-0.016-0.174-0.066-0.302 c-0.314-1.026-5.164-4.808-12.738-9.364c-6.496-3.858-12.348-6.552-14.082-6.552c-0.124,0-0.226,0.014-0.306,0.04l0.114-0.218 c0.936-0.582,7.626,2.44,14.356,6.482c6.036,3.646,12.606,8.216,12.89,9.502C51.774,57.45,51.768,57.51,51.736,57.556z"/><path fill="#ef8630" d="M40.068,45.232c-5.91-3.338-13.214-7.12-14.442-6.196c-0.004,0.004-0.008,0.008-0.012,0.014 l-0.228,0.412c-0.004,0.006-0.006,0.018-0.006,0.018c-0.002,0.022,0.012,0.048,0.032,0.054 c0.02,0.006,0.048-0.008,0.058-0.028c0.006-0.012,0.018-0.034,0.042-0.052c0.16-0.138,0.426-0.14,0.568-0.142h0.036 c1.758,0.026,6.798,2.342,13.826,6.356c2.878,1.67,13.04,8.132,13.002,9.916l0.002,0.056c0.002,0.078,0.002,0.11-0.014,0.142 l-0.026,0.038c-0.014,0.02-0.008,0.048,0.012,0.062c0.008,0.006,0.016,0.008,0.026,0.008c0.014,0,0.026-0.008,0.036-0.018 c0.012-0.016,0.02-0.03,0.028-0.044l0.228-0.344c0,0,0.002,0,0.002-0.002C53.872,54.238,46.926,49.272,40.068,45.232z M53.156,55.438l-0.122,0.184v-0.04c0.042-1.954-11.012-8.814-13.048-9.996c-7.04-4.02-12.096-6.342-13.872-6.368h-0.038 c-0.124,0.002-0.33,0.004-0.502,0.084l0.112-0.202c0.948-0.68,6.036,1.524,14.334,6.208 C47.906,49.956,53.674,54.404,53.156,55.438z"/><path fill="#f2f2f2" d="M29.562,49.718c0,2.58,1.06,4.914,2.778,6.618c1.722,1.708,4.06,2.788,6.654,2.788 c2.608,0,4.974-1.054,6.688-2.758c1.714-1.702,2.776-4.052,2.776-6.64l0,0V37.171l-18.9-0.022L29.562,49.718L29.562,49.718 L29.562,49.718z"/><path fill="#de5147" d="M29.914,49.736v0.008c0,2.466,1.026,4.712,2.67,6.344c1.648,1.634,3.918,2.65,6.4,2.65 c2.496,0,4.762-1.008,6.402-2.636s2.658-3.874,2.658-6.35l0,0v-12.18l-18.12-0.002L29.914,49.736 M44.402,41.215v7.752 l-0.006,0.82l0,0c0,0.216-0.014,0.462-0.038,0.672c-0.148,1.226-0.714,2.294-1.552,3.124 c-0.982,0.972-2.336,1.576-3.828,1.576c-1.484,0-2.808-0.624-3.792-1.602c-1.01-1.002-1.596-2.376-1.596-3.796l-0.002-8.566 L44.402,41.215L44.402,41.215L44.402,41.215z"/><path fill="#ffc571" d="M34.428,53.316c-0.044-0.044-0.112-0.048-0.15-0.008l-1.822,1.828 c-0.038,0.038-0.034,0.106,0.01,0.148c0.044,0.044,0.112,0.048,0.15,0.008l1.822-1.828 C34.476,53.428,34.472,53.36,34.428,53.316z M32.16,53.37l-0.138,0.138l0,0l0,0l0.224,0.222 c0.032,0.032,0.09,0.028,0.124-0.006l0.494-0.496c0.034-0.034,0.038-0.084,0.002-0.12l-0.228-0.224l-0.142,0.142l0.1,0.1 l-0.1,0.102l-0.1-0.1l-0.142,0.14l0.1,0.1l-0.1,0.1L32.16,53.37z M33.604,53.978l-0.76-0.688l-0.422,0.418l0.698,0.754 L33.604,53.978z M33.198,48.158c0-0.068-0.046-0.124-0.104-0.124h-0.698c-0.002-0.056-0.02-0.094-0.028-0.142 c0.008,0.05,0.03,0.084,0.032,0.14h0.66l-0.116-0.978h0.036c0.052,0,0.094-0.05,0.094-0.112c0-0.062-0.042-0.112-0.094-0.112 h-2.474c-0.052,0-0.094,0.05-0.094,0.112c0,0.062,0.042,0.112,0.094,0.112h0.038l-0.106,0.976l0.66,0.002v0.002h-0.702 c-0.056,0-0.104,0.056-0.104,0.124c0,0.068,0.046,0.124,0.104,0.124h2.698C33.152,48.282,33.198,48.226,33.198,48.158z M31.326,47.36c-0.108,0.148-0.196,0.352-0.22,0.642C31.116,47.696,31.212,47.502,31.326,47.36z M30.356,46.716 c0,0.062,0.044,0.112,0.1,0.112h2.586c0.054,0,0.1-0.05,0.1-0.112c0-0.062-0.044-0.112-0.1-0.112h-2.586 C30.4,46.604,30.356,46.654,30.356,46.716z M31.308,45.151L31.308,45.151L31.308,45.151v0.316 c0,0.046,0.044,0.084,0.09,0.084H32.1c0.046,0,0.088-0.032,0.088-0.082v-0.32h-0.2v0.142h-0.142v-0.14h-0.2v0.142h-0.142 v-0.138L31.308,45.151z M31.402,46.598l0.686,0.002l-0.046-1.022l-0.594-0.004L31.402,46.598z M30.572,46.602h0.656 l-0.02-0.55H30.59L30.572,46.602z M32.26,46.602h0.656l-0.02-0.55h-0.618L32.26,46.602z"/><path fill="#ffc571" d="M30.468,45.653L30.468,45.653L30.468,45.653v0.316c0,0.046,0.042,0.084,0.09,0.084h0.688 c0.046,0,0.086-0.032,0.086-0.082v-0.318h-0.196v0.142h-0.14v-0.14H30.8v0.142h-0.14v-0.138L30.468,45.653z M32.158,45.653 L32.158,45.653L32.158,45.653v0.316c0,0.046,0.042,0.084,0.09,0.084h0.688c0.046,0,0.086-0.032,0.086-0.082v-0.318h-0.196 v0.142h-0.14v-0.14H32.49v0.142h-0.14v-0.138L32.158,45.653z M32.538,55.052L33,54.588l-0.406-0.374l-0.436,0.436 L32.538,55.052z M32.594,54.214L32.594,54.214L32.594,54.214z M34.19,53.394l-0.406-0.374l-0.436,0.436l0.38,0.402 L34.19,53.394z M32.62,54.068l-0.226-0.226l-0.138,0.138l0.1,0.1l-0.098,0.098l-0.1-0.1l-0.138,0.138l0.1,0.1l-0.098,0.098 l-0.098-0.098L31.79,54.45l0,0l0,0l0.224,0.222c0.032,0.032,0.09,0.028,0.122-0.004l0.484-0.486 C32.652,54.154,32.656,54.104,32.62,54.068z M33.212,53.224l-0.098-0.098L32.98,53.26l0,0l0,0l0.224,0.222 c0.032,0.032,0.09,0.028,0.122-0.004l0.484-0.486c0.032-0.032,0.036-0.084,0.002-0.118l-0.226-0.224l-0.138,0.138l0.1,0.1 l-0.098,0.098l-0.1-0.1l-0.138,0.138l0.1,0.1L33.212,53.224z M35.334,54.276l-0.492,0.494 c-0.042-0.038-0.08-0.052-0.122-0.082c0.042,0.03,0.08,0.038,0.122,0.078l0.466-0.468L34.53,53.69l0.026-0.026 c0.036-0.036,0.03-0.102-0.012-0.146c-0.044-0.044-0.11-0.048-0.146-0.012l-1.742,1.748c-0.036,0.036-0.03,0.102,0.012,0.146 c0.044,0.044,0.11,0.048,0.146,0.012l0.026-0.026l0.622,0.762l0.466-0.464c0,0,0,0.002,0.002,0.002l-0.496,0.496 c-0.04,0.04-0.034,0.112,0.016,0.16c0.048,0.048,0.12,0.054,0.16,0.014l1.9-1.906c0.04-0.04,0.034-0.112-0.016-0.16 C35.448,54.242,35.374,54.236,35.334,54.276z M33.61,55.052c0.028,0.176,0.112,0.376,0.29,0.59 C33.7,55.428,33.63,55.228,33.61,55.052z M32.158,38.309L32.158,38.309L32.158,38.309v0.316c0,0.046,0.042,0.084,0.09,0.084 h0.688c0.046,0,0.086-0.032,0.086-0.082v-0.32h-0.196v0.142h-0.14v-0.142H32.49v0.142h-0.14v-0.138L32.158,38.309z M30.558,38.707h0.688c0.046,0,0.086-0.032,0.086-0.082v-0.32h-0.196v0.142h-0.14v-0.142H30.8v0.142h-0.14v-0.138h-0.19l0,0 l0,0v0.316C30.47,38.671,30.512,38.707,30.558,38.707z"/><path fill="#ffc571" d="M32.896,38.709h-0.618l-0.018,0.55h0.656L32.896,38.709z M31.208,38.709H30.59l-0.018,0.55 h0.656L31.208,38.709z M31.402,39.255l0.686,0.002l-0.046-1.024l-0.594-0.002L31.402,39.255z M31.398,38.207H32.1 c0.046,0,0.088-0.032,0.088-0.082v-0.318h-0.2v0.142h-0.142v-0.14h-0.2v0.142h-0.142v-0.138h-0.196l0,0l0,0v0.316 C31.308,38.169,31.352,38.207,31.398,38.207z M33.04,39.485c0.054,0,0.1-0.05,0.1-0.112c0-0.062-0.044-0.112-0.1-0.112 h-2.586c-0.054,0-0.1,0.05-0.1,0.112c0,0.062,0.044,0.112,0.1,0.112H33.04z"/><path fill="#ffc571" d="M33.094,40.939c0.056,0,0.104-0.056,0.104-0.124c0-0.068-0.046-0.124-0.104-0.124h-0.698 c-0.002-0.056-0.02-0.094-0.028-0.144c0.008,0.05,0.03,0.084,0.032,0.14h0.66l-0.116-0.978h0.036 c0.052,0,0.094-0.05,0.094-0.112c0-0.062-0.042-0.112-0.094-0.112h-2.474c-0.052,0-0.094,0.05-0.094,0.112 c0,0.062,0.042,0.112,0.094,0.112h0.038l-0.106,0.976l0.66,0.002v0.002h-0.702c-0.056,0-0.104,0.056-0.104,0.124 c0,0.068,0.046,0.124,0.104,0.124h2.698V40.939z M31.326,40.017c-0.108,0.148-0.196,0.352-0.22,0.642 C31.116,40.351,31.212,40.159,31.326,40.017z M40.172,38.709h-0.616l-0.02,0.55h0.658L40.172,38.709z M37.834,38.707h0.688 c0.046,0,0.086-0.032,0.086-0.082v-0.32h-0.196v0.142h-0.14v-0.142h-0.196v0.142h-0.14v-0.138h-0.19l0,0l0,0v0.316 C37.746,38.671,37.788,38.707,37.834,38.707z"/><path fill="#ffc571" d="M39.434,38.309L39.434,38.309L39.434,38.309v0.316c0,0.046,0.042,0.084,0.088,0.084h0.688 c0.046,0,0.086-0.032,0.086-0.082v-0.32H40.1v0.142h-0.14v-0.142h-0.196v0.142h-0.14v-0.138L39.434,38.309z M38.484,38.709 h-0.618l-0.018,0.55h0.656L38.484,38.709z M38.678,39.255l0.686,0.002l-0.044-1.024l-0.596-0.002L38.678,39.255z M38.676,38.207h0.702c0.046,0,0.088-0.032,0.088-0.082v-0.318h-0.2v0.142h-0.142v-0.14h-0.2v0.142H38.78v-0.138h-0.196l0,0 l0,0v0.316C38.584,38.169,38.628,38.207,38.676,38.207z M40.316,39.485c0.054,0,0.1-0.05,0.1-0.112 c0-0.062-0.044-0.112-0.1-0.112H37.73c-0.054,0-0.1,0.05-0.1,0.112c0,0.062,0.044,0.112,0.1,0.112H40.316z"/><path fill="#ffc571" d="M39.672,40.691c-0.002-0.056-0.02-0.094-0.028-0.144c0.008,0.05,0.03,0.084,0.032,0.14h0.66 l-0.116-0.978h0.036c0.052,0,0.094-0.05,0.094-0.112c0-0.062-0.042-0.112-0.094-0.112h-2.474 c-0.052,0-0.094,0.05-0.094,0.112c0,0.062,0.042,0.112,0.094,0.112h0.038l-0.106,0.976l0.66,0.002v0.002h-0.702 c-0.056,0-0.104,0.056-0.104,0.124c0,0.068,0.046,0.124,0.104,0.124h2.698c0.056,0,0.104-0.056,0.104-0.124 c0-0.068-0.046-0.124-0.104-0.124h-0.698V40.691z M38.602,40.017c-0.108,0.148-0.196,0.352-0.22,0.642 C38.392,40.351,38.488,40.159,38.602,40.017z M44.674,53.478c0.032,0.032,0.09,0.036,0.122,0.004l0.226-0.222l0,0l0,0 l-0.134-0.134l-0.098,0.098l-0.098-0.098l0.1-0.1l-0.138-0.138l-0.1,0.1l-0.098-0.098l0.1-0.1l-0.138-0.138l-0.226,0.224 c-0.036,0.036-0.03,0.086,0.002,0.118L44.674,53.478z M45.978,54.418L45.88,54.32l0.1-0.1l-0.138-0.138l-0.1,0.1 l-0.098-0.098l0.1-0.1l-0.138-0.138l-0.226,0.226c-0.036,0.036-0.03,0.086,0.002,0.118l0.484,0.486 c0.032,0.032,0.09,0.036,0.122,0.004l0.224-0.222l0,0l0,0l-0.134-0.134L45.978,54.418z M44.652,53.456l-0.436-0.436 l-0.406,0.374l0.462,0.464L44.652,53.456z"/><path fill="#ffc571" d="M44.998,54.588l0.464,0.464l0.38-0.402l-0.436-0.436L44.998,54.588z M45.406,54.214 L45.406,54.214L45.406,54.214z M43.456,53.52c-0.044,0.044-0.05,0.108-0.012,0.146l0.026,0.026L42.692,54.3l0.466,0.468 c0.042-0.04,0.08-0.046,0.122-0.078c-0.04,0.03-0.08,0.044-0.122,0.082l-0.492-0.494c-0.04-0.04-0.112-0.034-0.162,0.014 c-0.048,0.048-0.056,0.12-0.016,0.16l1.9,1.906c0.04,0.04,0.112,0.034,0.162-0.014c0.048-0.048,0.056-0.12,0.016-0.16 l-0.496-0.496c0,0,0-0.002,0.002-0.002l0.466,0.464l0.622-0.762l0.026,0.026c0.036,0.036,0.102,0.032,0.146-0.012 s0.05-0.108,0.012-0.146l-1.742-1.748C43.564,53.472,43.498,53.476,43.456,53.52z M44.39,55.054 c-0.02,0.176-0.09,0.374-0.29,0.59C44.278,55.428,44.36,55.23,44.39,55.054z M45.358,52.884l-0.226,0.224 c-0.036,0.036-0.03,0.086,0.002,0.12l0.494,0.496c0.034,0.034,0.09,0.038,0.124,0.006l0.224-0.222l0,0l0,0l-0.138-0.138 l-0.098,0.098l-0.1-0.1l0.1-0.1l-0.142-0.14l-0.1,0.1l-0.1-0.102l0.1-0.1L45.358,52.884z M44.88,54.462l0.696-0.754 l-0.42-0.418l-0.76,0.688L44.88,54.462z M43.572,53.316c-0.044,0.044-0.048,0.11-0.01,0.148l1.822,1.828 c0.038,0.038,0.106,0.034,0.15-0.008c0.044-0.044,0.048-0.11,0.01-0.148l-1.822-1.828 C43.682,53.27,43.614,53.274,43.572,53.316z M44.98,45.651v0.318c0,0.05,0.04,0.082,0.086,0.082h0.688 c0.046,0,0.088-0.038,0.09-0.084v-0.316l0,0l0,0h-0.19v0.138h-0.14v-0.142h-0.196v0.14h-0.14v-0.142L44.98,45.651z M46.668,45.651v0.318c0,0.05,0.04,0.082,0.086,0.082h0.688c0.046,0,0.088-0.038,0.09-0.084v-0.316l0,0l0,0h-0.19v0.138H47.2 v-0.142h-0.196v0.14h-0.14v-0.142L46.668,45.651z M45.74,46.602l-0.02-0.55h-0.616l-0.022,0.55H45.74z M47.428,46.602 l-0.018-0.55h-0.618l-0.02,0.55H47.428z M45.912,46.6l0.686-0.002l-0.046-1.024l-0.596,0.004L45.912,46.6z M45.812,45.149 v0.32c0,0.05,0.04,0.082,0.088,0.082h0.7c0.048,0,0.09-0.038,0.09-0.084v-0.316l0,0l0,0h-0.196v0.138h-0.142v-0.142h-0.2 v0.14H46.01v-0.142h-0.198V45.149z M44.86,46.716c0,0.062,0.044,0.112,0.1,0.112h2.586c0.054,0,0.1-0.05,0.1-0.112 c0-0.062-0.044-0.112-0.1-0.112H44.96C44.904,46.604,44.86,46.654,44.86,46.716z M46.9,48.034v-0.002l0.66-0.002 l-0.106-0.976h0.038c0.052,0,0.094-0.05,0.094-0.112c0-0.062-0.042-0.112-0.094-0.112h-2.474 c-0.052,0-0.094,0.05-0.094,0.112c0,0.062,0.042,0.112,0.094,0.112h0.036l-0.116,0.978h0.66 c0.002-0.058,0.024-0.09,0.032-0.142c-0.008,0.05-0.026,0.09-0.028,0.144h-0.698c-0.056,0-0.104,0.056-0.104,0.124 c0,0.068,0.046,0.124,0.104,0.124h2.698c0.056,0,0.104-0.056,0.104-0.124c0-0.068-0.046-0.124-0.104-0.124L46.9,48.034z M46.674,47.362c0.114,0.14,0.208,0.332,0.218,0.636C46.868,47.71,46.782,47.508,46.674,47.362z M45.066,38.707h0.688 c0.046,0,0.088-0.038,0.09-0.084v-0.316l0,0l0,0h-0.19v0.138h-0.14v-0.142h-0.196v0.142h-0.14v-0.142h-0.196v0.32 C44.98,38.675,45.02,38.707,45.066,38.707z M45.74,39.259l-0.02-0.55h-0.616l0,0l-0.022,0.55H45.74z M46.668,38.307v0.32 c0,0.05,0.04,0.082,0.086,0.082h0.688c0.046,0,0.088-0.038,0.09-0.084v-0.316l0,0l0,0h-0.19v0.138H47.2v-0.142h-0.196v0.142 h-0.14v-0.142L46.668,38.307z M47.428,39.259l-0.018-0.55h-0.618l0,0l-0.02,0.55H47.428z M45.912,39.257l0.686-0.002 l-0.046-1.024l-0.596,0.002L45.912,39.257z M45.898,38.207H46.6c0.048,0,0.09-0.038,0.09-0.084v-0.316l0,0l0,0h-0.196v0.138 h-0.142v-0.142h-0.2v0.14H46.01v-0.142h-0.2v0.318C45.812,38.173,45.852,38.207,45.898,38.207z M47.546,39.485 c0.054,0,0.1-0.05,0.1-0.112c0-0.062-0.044-0.112-0.1-0.112H44.96c-0.054,0-0.1,0.05-0.1,0.112 c0,0.062,0.044,0.112,0.1,0.112H47.546z M47.602,40.939c0.056,0,0.104-0.056,0.104-0.124c0-0.068-0.046-0.124-0.104-0.124 H46.9v-0.002l0.66-0.002l-0.106-0.976h0.038c0.052,0,0.094-0.05,0.094-0.112c0-0.062-0.042-0.112-0.094-0.112h-2.474 c-0.052,0-0.094,0.05-0.094,0.112c0,0.062,0.042,0.112,0.094,0.112h0.036l-0.116,0.978h0.66 c0.002-0.058,0.024-0.09,0.032-0.142c-0.008,0.05-0.026,0.09-0.028,0.144h-0.698c-0.056,0-0.104,0.056-0.104,0.124 c0,0.068,0.046,0.124,0.104,0.124L47.602,40.939z M46.674,40.019c0.114,0.14,0.208,0.332,0.218,0.636 C46.868,40.367,46.782,40.165,46.674,40.019z"/><g><path fill="#de5147" d="M38.986,58.776c-2.414,0-4.698-0.946-6.43-2.662c-1.73-1.714-2.682-3.978-2.682-6.372 l0.08-0.008v0.008c0,2.372,0.944,4.616,2.658,6.314c1.716,1.702,3.98,2.638,6.372,2.638c2.404,0,4.668-0.932,6.374-2.624 c1.698-1.684,2.638-3.916,2.646-6.288V49.75v-12.14l-18.04-0.002l-0.012,12.128h-0.08l0.012-12.208l18.2,0.004v12.222 c0,2.406-0.948,4.67-2.67,6.378C43.696,57.836,41.412,58.776,38.986,58.776z M38.98,55.198c-1.416,0-2.772-0.572-3.822-1.614 c-1.022-1.014-1.608-2.408-1.608-3.826l-0.002-8.606h0.04l10.83,0.02l0.024,0.024v0.016v7.752l-0.006,0.82 c0,0.226-0.014,0.472-0.038,0.676c-0.142,1.188-0.684,2.276-1.562,3.148C41.804,54.634,40.434,55.198,38.98,55.198z M33.628,41.235l0.002,8.526c0,1.396,0.578,2.77,1.584,3.768c1.034,1.026,2.37,1.59,3.764,1.59 c1.432,0,2.782-0.556,3.8-1.564c0.866-0.86,1.4-1.932,1.54-3.102c0.024-0.2,0.038-0.444,0.038-0.666l0.006-0.82v-7.712 L33.628,41.235z"/><path fill="#de5147" d="M38.996,59.178c-2.496,0-4.872-0.996-6.692-2.802c-1.79-1.776-2.78-4.118-2.794-6.602l0,0 l-0.002-12.676l19.006,0.022v12.608c0,2.518-0.992,4.89-2.792,6.678C43.92,58.192,41.532,59.178,38.996,59.178z M29.614,49.666v0.054c0,2.476,0.982,4.812,2.764,6.58c1.8,1.788,4.15,2.772,6.618,2.772c2.508,0,4.87-0.974,6.65-2.742 c1.772-1.758,2.75-4.088,2.762-6.564v-0.038V37.227l-18.794-0.022V49.666z"/></g><g><path fill="#2785bd" d="M37.848,46.648l-0.004,1.706l0,0l0,0c0,0.35,0.136,0.67,0.352,0.902 c0.218,0.232,0.516,0.376,0.844,0.376c0.33,0,0.628-0.144,0.844-0.376c0.216-0.232,0.35-0.55,0.35-0.902v-1.708 L37.848,46.648z M38.392,48.83c-0.13,0-0.236-0.106-0.236-0.236s0.106-0.236,0.236-0.236s0.236,0.106,0.236,0.236 S38.522,48.83,38.392,48.83z M38.392,47.532c-0.13,0-0.236-0.106-0.236-0.236s0.106-0.236,0.236-0.236 s0.236,0.106,0.236,0.236C38.628,47.426,38.522,47.532,38.392,47.532z M39.052,48.166c-0.13,0-0.236-0.106-0.236-0.236 s0.106-0.236,0.236-0.236s0.236,0.106,0.236,0.236S39.182,48.166,39.052,48.166z M39.714,48.828 c-0.13,0-0.236-0.106-0.236-0.236s0.106-0.236,0.236-0.236s0.236,0.106,0.236,0.236S39.844,48.828,39.714,48.828z M39.716,47.534c-0.13,0-0.236-0.106-0.236-0.236s0.106-0.236,0.236-0.236s0.236,0.106,0.236,0.236 S39.846,47.534,39.716,47.534z M37.848,42.523l-0.004,1.708l0,0l0,0c0,0.35,0.136,0.67,0.352,0.902 c0.218,0.232,0.516,0.378,0.844,0.378c0.33,0,0.628-0.144,0.844-0.376c0.216-0.232,0.35-0.55,0.35-0.902v-1.708 L37.848,42.523z M38.392,44.705c-0.13,0-0.236-0.106-0.236-0.236s0.106-0.236,0.236-0.236s0.236,0.106,0.236,0.236 C38.628,44.601,38.522,44.705,38.392,44.705z M38.392,43.409c-0.13,0-0.236-0.106-0.236-0.236s0.106-0.236,0.236-0.236 s0.236,0.106,0.236,0.236C38.628,43.303,38.522,43.409,38.392,43.409z M39.052,44.043c-0.13,0-0.236-0.106-0.236-0.236 s0.106-0.236,0.236-0.236s0.236,0.106,0.236,0.236S39.182,44.043,39.052,44.043z M39.714,44.703 c-0.13,0-0.236-0.106-0.236-0.236s0.106-0.236,0.236-0.236s0.236,0.106,0.236,0.236 C39.95,44.599,39.844,44.703,39.714,44.703z M39.716,43.409c-0.13,0-0.236-0.106-0.236-0.236s0.106-0.236,0.236-0.236 s0.236,0.106,0.236,0.236S39.846,43.409,39.716,43.409z M34.538,46.648l-0.004,1.706l0,0l0,0c0,0.35,0.136,0.67,0.352,0.902 c0.218,0.232,0.516,0.376,0.844,0.376c0.328,0,0.628-0.144,0.844-0.376c0.216-0.232,0.35-0.55,0.35-0.902v-1.708 L34.538,46.648z M35.08,48.83c-0.13,0-0.236-0.106-0.236-0.236s0.106-0.236,0.236-0.236s0.236,0.106,0.236,0.236 S35.212,48.83,35.08,48.83z M35.08,47.532c-0.13,0-0.236-0.106-0.236-0.236s0.106-0.236,0.236-0.236s0.236,0.106,0.236,0.236 C35.318,47.426,35.212,47.532,35.08,47.532z M35.742,48.166c-0.13,0-0.236-0.106-0.236-0.236s0.106-0.236,0.236-0.236 s0.236,0.106,0.236,0.236S35.872,48.166,35.742,48.166z M36.404,48.828c-0.13,0-0.236-0.106-0.236-0.236 s0.106-0.236,0.236-0.236s0.236,0.106,0.236,0.236S36.534,48.828,36.404,48.828z M36.404,47.534 c-0.13,0-0.236-0.106-0.236-0.236s0.106-0.236,0.236-0.236s0.236,0.106,0.236,0.236 C36.642,47.428,36.536,47.534,36.404,47.534z M41.15,46.648l-0.004,1.706l0,0l0,0c0,0.35,0.136,0.67,0.352,0.902 c0.218,0.232,0.516,0.376,0.844,0.376c0.33,0,0.628-0.144,0.844-0.376c0.216-0.232,0.35-0.55,0.35-0.902v-1.708L41.15,46.648 z M41.694,48.83c-0.13,0-0.236-0.106-0.236-0.236s0.106-0.236,0.236-0.236s0.236,0.106,0.236,0.236 S41.824,48.83,41.694,48.83z M41.694,47.532c-0.13,0-0.236-0.106-0.236-0.236s0.106-0.236,0.236-0.236 s0.236,0.106,0.236,0.236C41.93,47.426,41.824,47.532,41.694,47.532z M42.354,48.166c-0.13,0-0.236-0.106-0.236-0.236 s0.106-0.236,0.236-0.236S42.59,47.8,42.59,47.93S42.484,48.166,42.354,48.166z M43.016,48.828 c-0.13,0-0.236-0.106-0.236-0.236s0.106-0.236,0.236-0.236s0.236,0.106,0.236,0.236S43.146,48.828,43.016,48.828z M43.018,47.534c-0.13,0-0.236-0.106-0.236-0.236s0.106-0.236,0.236-0.236s0.236,0.106,0.236,0.236 S43.148,47.534,43.018,47.534z M37.848,50.736l-0.004,1.708l0,0l0,0c0,0.35,0.136,0.67,0.352,0.902 c0.218,0.232,0.516,0.378,0.844,0.378c0.33,0,0.628-0.144,0.844-0.376c0.216-0.232,0.35-0.55,0.35-0.902v-1.708 L37.848,50.736z M38.392,52.918c-0.13,0-0.236-0.106-0.236-0.236s0.106-0.236,0.236-0.236s0.236,0.106,0.236,0.236 S38.522,52.918,38.392,52.918z M38.392,51.62c-0.13,0-0.236-0.106-0.236-0.236s0.106-0.236,0.236-0.236 s0.236,0.106,0.236,0.236S38.522,51.62,38.392,51.62z M39.052,52.254c-0.13,0-0.236-0.106-0.236-0.236 s0.106-0.236,0.236-0.236s0.236,0.106,0.236,0.236S39.182,52.254,39.052,52.254z M39.714,52.916 c-0.13,0-0.236-0.106-0.236-0.236s0.106-0.236,0.236-0.236s0.236,0.106,0.236,0.236S39.844,52.916,39.714,52.916z M39.716,51.622c-0.13,0-0.236-0.106-0.236-0.236s0.106-0.236,0.236-0.236s0.236,0.106,0.236,0.236 C39.952,51.516,39.846,51.622,39.716,51.622z"/></g><g><path fill="#40396e" d="M86.5,77h-77C8.672,77,8,76.328,8,75.5v-55C8,19.672,8.672,19,9.5,19h77 c0.828,0,1.5,0.672,1.5,1.5v55C88,76.328,87.328,77,86.5,77z M11,74h74V22H11V74z"/></g></g></switch></svg>