<svg xmlns="http://www.w3.org/2000/svg" viewBox="0 0 100 100"><path d="M13.5,86C9.916,86,7,83.084,7,79.5v-55c0-3.584,2.916-6.5,6.5-6.5h77c3.584,0,6.5,2.916,6.5,6.5v55 c0,3.584-2.916,6.5-6.5,6.5H13.5z" opacity=".35"/><path fill="#f2f2f2" d="M11.5,84C7.916,84,5,81.084,5,77.5v-55c0-3.584,2.916-6.5,6.5-6.5h77c3.584,0,6.5,2.916,6.5,6.5v55 c0,3.584-2.916,6.5-6.5,6.5H11.5z"/><rect width="76" height="55" x="12" y="22" fill="#ff7575"/><rect width="77" height="55" x="11.5" y="22.5" fill="none" stroke="#40396e" stroke-linejoin="round" stroke-miterlimit="10" stroke-width="3"/><rect width="74" height="27" x="13" y="36" fill="#ffc571"/><path fill="#fff" d="M22.989,44.994h-2v14h2V44.994z M40.989,44.994h-2v14h2V44.994z"/><path fill="#f4665c" d="M30.989,38.994c-0.552,0-1,0.448-1,1c0,0.552,0.448,1,1,1s1-0.448,1-1 C31.989,39.442,31.541,38.994,30.989,38.994L30.989,38.994z"/><path fill="#f4665c" d="M32.503,41.994c0.276,0,0.5,0.224,0.5,0.5s-0.224,0.5-0.5,0.5c-0.276,0-0.5-0.224-0.5-0.5 S32.227,41.994,32.503,41.994 M32.503,40.994c-0.828,0-1.5,0.672-1.5,1.5s0.672,1.5,1.5,1.5s1.5-0.672,1.5-1.5 S33.331,40.994,32.503,40.994L32.503,40.994z"/><path fill="#f4665c" d="M34.502,41.994c0.276,0,0.5,0.224,0.5,0.5s-0.224,0.5-0.5,0.5c-0.276,0-0.5-0.224-0.5-0.5 S34.226,41.994,34.502,41.994 M34.502,40.994c-0.828,0-1.5,0.672-1.5,1.5s0.672,1.5,1.5,1.5s1.5-0.672,1.5-1.5 S35.33,40.994,34.502,40.994L34.502,40.994z M29.502,41.994c0.276,0,0.5,0.224,0.5,0.5s-0.224,0.5-0.5,0.5s-0.5-0.224-0.5-0.5 S29.226,41.994,29.502,41.994 M29.502,40.994c-0.828,0-1.5,0.672-1.5,1.5s0.672,1.5,1.5,1.5s1.5-0.672,1.5-1.5 S30.33,40.994,29.502,40.994L29.502,40.994z"/><path fill="#f4665c" d="M27.489,41.994c0.276,0,0.5,0.224,0.5,0.5s-0.224,0.5-0.5,0.5s-0.5-0.224-0.5-0.5 S27.213,41.994,27.489,41.994 M27.489,40.994c-0.828,0-1.5,0.672-1.5,1.5s0.672,1.5,1.5,1.5s1.5-0.672,1.5-1.5 S28.317,40.994,27.489,40.994L27.489,40.994z"/><path fill="#f4665c" d="M30.989,44.994h-6v7h6V44.994L30.989,44.994z"/><path fill="#fff" d="M36.989,44.994h-6v7h6V44.994L36.989,44.994z"/><path fill="#f4665c" d="M36.989,51.994h-6v7.045c6.074-0.013,6-4.045,6-4.045V51.994L36.989,51.994z"/><path fill="#ffe385" d="M30.989,51.994h-6v3c0,0-0.131,4.046,5.972,4.046c0.01,0,0.018-0.001,0.027-0.001L30.989,51.994 L30.989,51.994z"/><path fill="#f78f8f" d="M21.989,43.494c-0.276,0-0.5,0.224-0.5,0.5s0.224,0.5,0.5,0.5s0.5-0.224,0.5-0.5 S22.265,43.494,21.989,43.494z"/><path fill="#f4665c" d="M21.989,42.994c-0.552,0-1,0.448-1,1s0.448,1,1,1s1-0.448,1-1S22.541,42.994,21.989,42.994 L21.989,42.994z"/><path fill="#f78f8f" d="M39.989,43.494c-0.276,0-0.5,0.224-0.5,0.5s0.224,0.5,0.5,0.5s0.5-0.224,0.5-0.5 S40.265,43.494,39.989,43.494z"/><path fill="#f4665c" d="M39.989,42.994c-0.552,0-1,0.448-1,1s0.448,1,1,1c0.552,0,1-0.448,1-1S40.541,42.994,39.989,42.994 L39.989,42.994z"/><path fill="#707cc0" d="M30.989,50c-1.159,0-2,1.052-2,2.5s0.841,2.5,2,2.5c1.159,0,2-1.052,2-2.5S32.148,50,30.989,50 L30.989,50z"/><polygon fill="#f4665c" points="28,45 34.017,45.006 35.001,43.908 33,43 32,43 31,42.469 30,43 26.996,43.912"/><rect width="4" height="2" x="20" y="57" fill="#707cc0"/><rect width="4" height="2" x="38" y="57" fill="#707cc0"/></svg>