<svg xmlns="http://www.w3.org/2000/svg" viewBox="0 0 100 100"><switch><g><path d="M88.5,14h-77C7.916,14,5,16.916,5,20.5v55c0,3.584,2.916,6.5,6.5,6.5h77c3.584,0,6.5-2.916,6.5-6.5v-55 C95,16.916,92.084,14,88.5,14z" opacity=".35"/><path fill="#f2f2f2" d="M86.5,12h-77C5.916,12,3,14.916,3,18.5v55C3,77.084,5.916,80,9.5,80h77 c3.584,0,6.5-2.916,6.5-6.5v-55C93,14.916,90.084,12,86.5,12z"/><path fill="#2785bd" d="M9,19h78v55H9V19z"/><rect width="10" height="55" x="31" y="19" fill="#f9b84f"/><rect width="10" height="77" x="42.5" y="7.5" fill="#f9b84f" transform="rotate(-90 47.5 46)"/><path fill="#40396e" d="M86.5,75h-77C8.672,75,8,74.328,8,73.5v-55C8,17.672,8.672,17,9.5,17h77 c0.828,0,1.5,0.672,1.5,1.5v55C88,74.328,87.328,75,86.5,75z M11,72h74V20H11V72z"/></g></switch></svg>