<svg xmlns="http://www.w3.org/2000/svg" viewBox="0 0 100 100"><switch><g><path d="M88.5,16h-77C7.916,16,5,18.916,5,22.5v55c0,3.584,2.916,6.5,6.5,6.5h77c3.584,0,6.5-2.916,6.5-6.5v-55 C95,18.916,92.084,16,88.5,16z" opacity=".35"/><path fill="#f2f2f2" d="M86.5,14h-77C5.916,14,3,16.916,3,20.5v55C3,79.084,5.916,82,9.5,82h77 c3.584,0,6.5-2.916,6.5-6.5v-55C93,16.916,90.084,14,86.5,14z"/><path fill="#f4665c" d="M9,21h78v55H9V21z"/><path fill="#40396e" d="M86.5,77h-77C8.672,77,8,76.328,8,75.5v-55C8,19.672,8.672,19,9.5,19h77 c0.828,0,1.5,0.672,1.5,1.5v55C88,76.328,87.328,77,86.5,77z M11,74h74V22H11V74z"/><rect width="12" height="32" x="42" y="32" fill="#f2f2f2" transform="rotate(-180 48 48)"/><rect width="12" height="32" x="42" y="32" fill="#f2f2f2" transform="rotate(90 48 48)"/></g></switch></svg>