<svg xmlns="http://www.w3.org/2000/svg" viewBox="0 0 100 100"><path d="M13.5,86C9.916,86,7,83.084,7,79.5v-55c0-3.584,2.916-6.5,6.5-6.5h77c3.584,0,6.5,2.916,6.5,6.5v55 c0,3.584-2.916,6.5-6.5,6.5H13.5z" opacity=".35"/><path fill="#f2f2f2" d="M11.5,84C7.916,84,5,81.084,5,77.5v-55c0-3.584,2.916-6.5,6.5-6.5h77c3.584,0,6.5,2.916,6.5,6.5v55 c0,3.584-2.916,6.5-6.5,6.5H11.5z"/><rect width="76" height="55" x="12" y="22" fill="#96c362"/><rect width="77" height="55" x="11.5" y="22.5" fill="none" stroke="#40396e" stroke-linejoin="round" stroke-miterlimit="10" stroke-width="3"/><rect width="74" height="18" x="13" y="58" fill="#40396e"/><rect width="74" height="19" x="13" y="41" fill="#fff"/><rect width="19" height="52" x="13" y="24" fill="#ff7575"/></svg>