<svg xmlns="http://www.w3.org/2000/svg" viewBox="0 0 100 100"><path d="M13.5,86C9.916,86,7,83.084,7,79.5v-55c0-3.584,2.916-6.5,6.5-6.5h77c3.584,0,6.5,2.916,6.5,6.5v55 c0,3.584-2.916,6.5-6.5,6.5H13.5z" opacity=".35"/><path fill="#f2f2f2" d="M11.5,84C7.916,84,5,81.084,5,77.5v-55c0-3.584,2.916-6.5,6.5-6.5h77c3.584,0,6.5,2.916,6.5,6.5v55 c0,3.584-2.916,6.5-6.5,6.5H11.5z"/><rect width="76" height="55" x="12" y="22" fill="#f2f2f2"/><rect width="37" height="26" x="13" y="24" fill="#70bfff"/><rect width="77" height="55" x="11.5" y="22.5" fill="none" stroke="#40396e" stroke-linejoin="round" stroke-miterlimit="10" stroke-width="3"/><rect width="37" height="5" x="50" y="30" fill="#ff7575"/><rect width="37" height="5" x="50" y="40" fill="#ff7575"/><rect width="74" height="6" x="13" y="60" fill="#ff7575"/><rect width="74" height="5" x="13" y="50" fill="#ff7575"/><rect width="74" height="5" x="13" y="71" fill="#ff7575"/><polygon fill="#f2f2f2" points="17.114,26 17.764,27.317 19.217,27.528 18.166,28.553 18.414,30 17.114,29.317 15.815,30 16.063,28.553 15.011,27.528 16.464,27.317"/><polygon fill="#f2f2f2" points="23.914,26 24.564,27.317 26.017,27.528 24.966,28.553 25.214,30 23.914,29.317 22.615,30 22.863,28.553 21.811,27.528 23.264,27.317"/><polygon fill="#f2f2f2" points="30.714,26 31.364,27.317 32.817,27.528 31.766,28.553 32.014,30 30.714,29.317 29.415,30 29.663,28.553 28.611,27.528 30.064,27.317"/><polygon fill="#f2f2f2" points="37.514,26 38.164,27.317 39.617,27.528 38.566,28.553 38.814,30 37.514,29.317 36.215,30 36.463,28.553 35.411,27.528 36.864,27.317"/><polygon fill="#f2f2f2" points="43.914,26 44.564,27.317 46.017,27.528 44.966,28.553 45.214,30 43.914,29.317 42.615,30 42.863,28.553 41.811,27.528 43.264,27.317"/><polygon fill="#f2f2f2" points="19.114,32 19.764,33.317 21.217,33.528 20.166,34.553 20.414,36 19.114,35.317 17.815,36 18.063,34.553 17.011,33.528 18.464,33.317"/><polygon fill="#f2f2f2" points="25.914,32 26.564,33.317 28.017,33.528 26.966,34.553 27.214,36 25.914,35.317 24.615,36 24.863,34.553 23.811,33.528 25.264,33.317"/><polygon fill="#f2f2f2" points="32.714,32 33.364,33.317 34.817,33.528 33.766,34.553 34.014,36 32.714,35.317 31.415,36 31.663,34.553 30.611,33.528 32.064,33.317"/><polygon fill="#f2f2f2" points="39.514,32 40.164,33.317 41.617,33.528 40.566,34.553 40.814,36 39.514,35.317 38.215,36 38.463,34.553 37.411,33.528 38.864,33.317"/><polygon fill="#f2f2f2" points="45.914,32 46.564,33.317 48.017,33.528 46.966,34.553 47.214,36 45.914,35.317 44.615,36 44.863,34.553 43.811,33.528 45.264,33.317"/><polygon fill="#f2f2f2" points="17.114,38 17.764,39.317 19.217,39.528 18.166,40.553 18.414,42 17.114,41.317 15.815,42 16.063,40.553 15.011,39.528 16.464,39.317"/><polygon fill="#f2f2f2" points="23.914,38 24.564,39.317 26.017,39.528 24.966,40.553 25.214,42 23.914,41.317 22.615,42 22.863,40.553 21.811,39.528 23.264,39.317"/><polygon fill="#f2f2f2" points="30.714,38 31.364,39.317 32.817,39.528 31.766,40.553 32.014,42 30.714,41.317 29.415,42 29.663,40.553 28.611,39.528 30.064,39.317"/><polygon fill="#f2f2f2" points="37.514,38 38.164,39.317 39.617,39.528 38.566,40.553 38.814,42 37.514,41.317 36.215,42 36.463,40.553 35.411,39.528 36.864,39.317"/><polygon fill="#f2f2f2" points="43.914,38 44.564,39.317 46.017,39.528 44.966,40.553 45.214,42 43.914,41.317 42.615,42 42.863,40.553 41.811,39.528 43.264,39.317"/><polygon fill="#f2f2f2" points="19.114,44 19.764,45.317 21.217,45.528 20.166,46.553 20.414,48 19.114,47.317 17.815,48 18.063,46.553 17.011,45.528 18.464,45.317"/><polygon fill="#f2f2f2" points="25.914,44 26.564,45.317 28.017,45.528 26.966,46.553 27.214,48 25.914,47.317 24.615,48 24.863,46.553 23.811,45.528 25.264,45.317"/><polygon fill="#f2f2f2" points="32.714,44 33.364,45.317 34.817,45.528 33.766,46.553 34.014,48 32.714,47.317 31.415,48 31.663,46.553 30.611,45.528 32.064,45.317"/><polygon fill="#f2f2f2" points="39.514,44 40.164,45.317 41.617,45.528 40.566,46.553 40.814,48 39.514,47.317 38.215,48 38.463,46.553 37.411,45.528 38.864,45.317"/><polygon fill="#f2f2f2" points="45.914,44 46.564,45.317 48.017,45.528 46.966,46.553 47.214,48 45.914,47.317 44.615,48 44.863,46.553 43.811,45.528 45.264,45.317"/></svg>